<svg width="280" height="196" viewBox="0 0 280 196" fill="none" xmlns="http://www.w3.org/2000/svg">
<g clip-path="url(#clip0)">
<path d="M140 195.747C217.32 195.747 280 192.25 280 187.937C280 183.624 217.32 180.127 140 180.127C62.6801 180.127 0 183.624 0 187.937C0 192.25 62.6801 195.747 140 195.747Z" fill="url(#paint0_linear)"/>
<path d="M236.224 121.301C235.633 120.476 234.867 119.791 233.98 119.296C233.094 118.801 232.11 118.507 231.097 118.436C232.439 121.476 236.224 121.301 236.224 121.301ZM237.987 116.116C235.731 111.371 231.506 111.229 231.506 111.229C232.342 116.122 237.987 116.109 237.987 116.109V116.116ZM240.301 109.926C238.946 104.851 234.792 103.937 234.792 103.937C234.753 108.895 240.301 109.919 240.301 109.919V109.926ZM219.722 113.082C219.423 113.727 219.3 114.439 219.367 115.147C219.434 115.854 219.689 116.531 220.105 117.107C221.602 115.15 219.722 113.082 219.722 113.082ZM225.769 113.73C225.092 114.481 224.626 115.398 224.423 116.389C224.219 117.379 224.283 118.406 224.609 119.363C227.461 117.321 225.75 113.724 225.75 113.724L225.769 113.73ZM230.177 117.587C227.532 119.603 228.582 123.239 228.582 123.239C229.245 122.47 229.73 121.564 230.002 120.586C230.275 119.608 230.328 118.581 230.157 117.58L230.177 117.587ZM216.417 117.457C215.425 117.271 214.402 117.353 213.453 117.695C212.504 118.037 211.663 118.626 211.018 119.402C214.232 120.802 216.397 117.451 216.397 117.451L216.417 117.457ZM251.255 92.0434C251.428 91.3524 251.414 90.6275 251.213 89.9438C251.013 89.2601 250.633 88.6424 250.114 88.1545C248.999 90.3582 251.255 92.0434 251.255 92.0434ZM257.561 88.5045C256.551 88.5505 255.571 88.8656 254.723 89.4171C253.875 89.9686 253.19 90.7366 252.739 91.6416C256.2 92.2444 257.561 88.4916 257.561 88.4916V88.5045ZM248.487 94.6684C248.637 93.6645 248.564 92.6398 248.273 91.6673C247.981 90.6949 247.479 89.7986 246.802 89.0425C245.648 92.1536 248.487 94.636 248.487 94.636V94.6684ZM244.883 101.046C243.529 95.9777 239.374 95.0638 239.374 95.0638C239.335 100.022 244.883 101.033 244.883 101.033V101.046ZM246.951 97.5527C246.632 96.5893 246.104 95.7078 245.407 94.9708C244.709 94.2338 243.858 93.6593 242.913 93.2879C243.282 96.5805 246.944 97.5397 246.944 97.5397L246.951 97.5527ZM242.757 103.924C242.165 103.1 241.399 102.417 240.513 101.923C239.627 101.429 238.643 101.136 237.631 101.066C238.972 104.093 242.757 103.911 242.757 103.911V103.924ZM230.177 125.929C232.614 125.494 232.601 122.688 232.601 122.688C231.947 122.962 231.377 123.406 230.951 123.973C230.525 124.54 230.258 125.211 230.177 125.916V125.929ZM245.531 106.115C248.908 109.77 253.646 106.705 253.646 106.705C249.181 103.924 245.531 106.102 245.531 106.102V106.115ZM243.205 112.091C246.581 115.746 251.319 112.68 251.319 112.68C246.854 109.9 243.205 112.078 243.205 112.078V112.091ZM237.87 129.318C242.025 132.054 245.888 127.944 245.888 127.944C240.858 126.33 237.87 129.318 237.87 129.318ZM241.876 118.034C244.579 120.283 247.612 117.691 247.612 117.691C246.708 117.226 245.696 117.012 244.681 117.073C243.666 117.133 242.686 117.465 241.844 118.034H241.876ZM215.522 123.66C218.99 124.23 220.299 120.465 220.299 120.465C219.285 120.519 218.304 120.843 217.458 121.405C216.612 121.967 215.932 122.746 215.49 123.66H215.522ZM254.003 94.0268C256.284 94.9925 257.807 92.6332 257.807 92.6332C257.102 92.4995 256.373 92.5583 255.698 92.8035C255.022 93.0487 254.426 93.4713 253.97 94.0268H254.003ZM251.196 97.0277C252.279 99.2573 254.975 98.4795 254.975 98.4795C254.529 97.9173 253.939 97.4858 253.269 97.2303C252.598 96.9748 251.871 96.9048 251.164 97.0277H251.196ZM248.571 101.357C251.209 103.386 254.45 101.422 254.45 101.422C253.531 100.976 252.524 100.738 251.502 100.727C250.48 100.716 249.468 100.931 248.539 101.357H248.571ZM226.534 126.745C225.525 126.804 224.549 127.131 223.708 127.692C222.867 128.254 222.191 129.03 221.751 129.941C225.18 130.518 226.489 126.745 226.489 126.745H226.534ZM223.365 123.155C222.656 123.09 221.943 123.215 221.298 123.516C220.653 123.818 220.1 124.286 219.696 124.872C222.049 125.63 223.365 123.155 223.365 123.155ZM222.717 132.922C225.795 134.627 228.297 131.516 228.297 131.516C227.33 131.236 226.307 131.219 225.331 131.465C224.355 131.711 223.462 132.211 222.743 132.916L222.717 132.922ZM221.965 135.644C224.92 139.643 229.963 137.116 229.963 137.116C225.854 133.868 221.991 135.638 221.991 135.638L221.965 135.644ZM252.065 93.7999L251.689 93.4823C240.437 107.093 235.712 124.593 233.729 136.908C233.469 138.498 233.253 140.039 233.081 141.53C232.553 138.135 231.703 134.8 230.54 131.568C227.552 123.466 222.963 118.605 217.253 117.555L217.162 118.034C230.06 120.445 232.653 141.685 232.854 143.48C232.193 149.15 231.946 154.86 232.115 160.566H232.601C232.431 154.895 232.676 149.219 233.333 143.584V143.506C233.56 141.452 233.852 139.28 234.215 137.025C236.211 124.717 240.91 107.294 252.091 93.7934L252.065 93.7999ZM245.045 123.88C244.132 123.439 243.131 123.204 242.116 123.192C241.101 123.181 240.097 123.394 239.173 123.816C241.831 125.838 245.071 123.874 245.071 123.874L245.045 123.88Z" fill="url(#paint1_linear)"/>
<path d="M249.718 166.976C235.66 167.669 232.562 176.303 229.567 173.71C229.422 173.591 229.291 173.453 229.179 173.302C227.37 170.806 233.249 166.756 233.217 153.313C233.217 144.809 232.743 129.072 238.862 127.588C244.099 126.292 242.278 139.151 249.744 137.848C255.176 136.908 247.988 127.005 252.817 125.086C258.164 122.954 258.002 133.279 262.539 130.446C267.076 127.614 268.502 118.553 272.579 121.035L272.754 121.152C276.519 123.699 272.592 129.578 269.824 133.343C267.056 137.109 265.935 138.107 267.147 138.879C268.359 139.65 275.424 138.606 274.99 143.098C274.555 147.59 262.604 146.799 258.877 151.556C255.15 156.314 266.713 153.968 264.25 159.393C262.837 162.497 256.705 166.632 249.718 166.976Z" fill="url(#paint2_linear)"/>
<path style="mix-blend-mode:screen" d="M259.046 158.881L244.56 157.882L254.69 145.652V145.665L266.415 143.714L255.546 144.615L267.374 130.33L260.044 138.354L256.641 131.807L259.357 139.106L248.17 151.349L240.334 137.79L247.515 152.062L233.489 167.527L234.967 168.817L243.821 158.77L259.046 158.881Z" fill="url(#paint3_linear)"/>
<path d="M207.135 160.462C207.168 160.592 207.206 160.721 207.245 160.857C208.671 165.667 211.912 171.286 217.752 177.061C221.091 180.412 225.293 182.772 229.892 183.88L230.19 183.951C230.559 184.035 230.922 184.106 231.285 184.178C235.201 184.869 239.228 184.583 243.007 183.346C246.786 182.109 250.203 179.959 252.953 177.087C256.842 173.12 260.815 168.201 259.784 165.738C259.747 165.638 259.699 165.542 259.642 165.453V165.42C257.049 161.564 251.553 162.465 249.524 161.473C249.432 161.426 249.343 161.372 249.258 161.311C249.186 161.262 249.119 161.205 249.057 161.143C247.586 159.613 254.243 156.314 254.165 151.265C254.155 150.967 254.125 150.67 254.074 150.377C254.057 150.261 254.033 150.146 254.003 150.033C253.121 146.417 248.733 146.961 248.28 145.308C248.255 145.224 248.239 145.137 248.234 145.049V144.738C248.299 142.93 249.226 139.222 250.049 135.061C250.049 134.938 250.101 134.815 250.12 134.692C250.859 130.913 251.481 126.797 251.294 123.407C251.294 123.297 251.294 123.193 251.294 123.09C251.06 119.888 250.056 117.373 247.664 116.466C247.59 116.434 247.515 116.408 247.437 116.388H247.366C244.89 115.617 242.401 116.479 240.081 118.281C239.957 118.378 239.828 118.475 239.705 118.585C235.168 122.312 231.402 129.506 229.801 134.906C229.749 135.081 229.697 135.262 229.652 135.431C229.442 136.177 229.273 136.934 229.146 137.699C228.503 141.486 227.415 145.185 225.906 148.718C225.847 148.854 225.789 148.996 225.724 149.132C224.428 152.088 223.015 154.22 221.997 154.616L221.79 154.674C221.758 154.68 221.725 154.68 221.693 154.674C219.748 154.674 213.597 146.663 209.76 147.544C209.658 147.566 209.559 147.596 209.462 147.635C208.953 147.835 208.514 148.18 208.198 148.627C206.37 151.025 205.677 155.238 207.135 160.462Z" fill="url(#paint4_linear)"/>
<path style="mix-blend-mode:screen" d="M207.135 160.462C207.167 160.592 207.206 160.721 207.245 160.857C209.427 161.87 211.708 162.656 214.051 163.204C215.76 163.627 217.491 163.958 219.236 164.195V164.124C222.771 167.591 226.864 170.439 231.343 172.55C230.449 178.571 229.976 182.823 229.865 183.886C229.865 184.035 229.865 184.126 229.833 184.139L230.144 184.171C230.144 184.171 230.144 184.081 230.144 183.957C230.215 183.309 230.436 181.281 230.831 178.273C232.607 177.787 251.98 172.356 259.738 165.744C259.701 165.644 259.654 165.549 259.596 165.459C256.187 168.389 250.47 171.085 245.013 173.237C245.382 171.811 247.339 164.416 249.459 161.493L249.193 161.331C246.866 164.571 244.818 172.738 244.656 173.373C238.175 175.881 232.179 177.593 230.876 177.949C231.557 172.842 232.717 165.083 234.441 156.502C234.694 156.58 234.947 156.657 235.2 156.716C243.626 158.79 252.051 152.081 253.996 150.383C253.979 150.267 253.955 150.153 253.925 150.04C251.292 152.368 248.286 154.235 245.032 155.562C245.343 154.175 246.743 148.121 248.273 145.276C248.248 145.192 248.232 145.105 248.227 145.017V144.706C246.581 147.726 244.883 154.823 244.688 155.724C241.452 156.975 237.896 157.139 234.558 156.191C235.854 149.709 237.494 142.813 239.484 136.241C240.676 136.28 246.827 136.416 250.042 135.061C250.042 134.938 250.094 134.815 250.113 134.692C247.126 136.053 240.949 135.988 239.581 135.93C240.741 132.125 242.025 128.437 243.438 125.028V125.067C245.798 123.685 248.542 123.103 251.261 123.407C251.261 123.297 251.261 123.193 251.261 123.09C248.611 122.819 245.942 123.352 243.6 124.619C244.757 121.813 246.104 119.089 247.631 116.466C247.558 116.434 247.482 116.408 247.404 116.388H247.333C245.144 120.203 243.294 124.202 241.804 128.34C241.396 127.257 239.212 121.398 240.041 118.274C239.918 118.371 239.788 118.468 239.665 118.579C239.017 122.195 241.461 128.301 241.61 128.631L241.746 128.58C239.607 134.522 237.809 140.581 236.36 146.728C235.53 145.613 231.551 140.078 229.788 134.912C229.736 135.087 229.684 135.268 229.638 135.437C231.7 141.115 236.217 147.052 236.263 147.104C235.258 151.284 234.383 155.432 233.631 159.354C232.523 158.368 227.701 153.877 225.899 148.685C225.84 148.821 225.782 148.964 225.717 149.1C227.72 154.48 232.782 159.03 233.566 159.71C232.691 164.312 231.985 168.596 231.44 172.258C228.186 170.725 225.138 168.789 222.366 166.496C222.782 162.527 222.656 158.519 221.99 154.583L221.783 154.642C221.751 154.648 221.718 154.648 221.686 154.642C222.338 158.48 222.471 162.389 222.081 166.263C217.252 162.244 211.983 156.126 209.766 147.538C209.664 147.559 209.565 147.59 209.468 147.629C211.132 153.805 214.43 159.418 219.015 163.878C217.589 163.651 211.724 162.743 207.135 160.462Z" fill="url(#paint5_linear)"/>
<path d="M232.763 56.7713V63.6935L232.66 180.801C232.659 181.184 232.582 181.562 232.435 181.916C232.287 182.269 232.072 182.589 231.8 182.859C231.529 183.129 231.207 183.342 230.853 183.487C230.498 183.633 230.119 183.706 229.736 183.705L91.9336 183.141V68.0231C91.9336 67.3823 92.0601 66.7477 92.306 66.1559C92.5518 65.564 92.9121 65.0266 93.3661 64.5743C93.8202 64.1221 94.3591 63.7639 94.9519 63.5205C95.5447 63.277 96.1798 63.153 96.8206 63.1555L144.285 63.35L198.366 63.5704L200.414 59.7722L203.039 54.9111C203.333 54.3624 203.772 53.9049 204.308 53.5883C204.844 53.2718 205.457 53.1083 206.079 53.1157L229.263 53.2C230.2 53.2119 231.094 53.5943 231.75 54.2635C232.406 54.9327 232.77 55.8343 232.763 56.7713Z" fill="url(#paint6_linear)"/>
<path d="M172.537 50.9379H107.256C105.262 50.9379 103.646 52.5542 103.646 54.5481V123.433C103.646 125.427 105.262 127.043 107.256 127.043H172.537C174.531 127.043 176.147 125.427 176.147 123.433V54.5481C176.147 52.5542 174.531 50.9379 172.537 50.9379Z" fill="url(#paint7_linear)"/>
<path d="M125.332 61.6519C124.847 61.6519 124.372 61.7959 123.968 62.0658C123.564 62.3358 123.249 62.7194 123.063 63.1683C122.877 63.6171 122.828 64.1111 122.923 64.5876C123.018 65.0641 123.252 65.5018 123.595 65.8453C123.939 66.1889 124.377 66.4228 124.853 66.5176C125.33 66.6124 125.824 66.5638 126.273 66.3778C126.721 66.1919 127.105 65.8771 127.375 65.4731C127.645 65.0691 127.789 64.5942 127.789 64.1083C127.789 63.4568 127.53 62.832 127.069 62.3713C126.609 61.9107 125.984 61.6519 125.332 61.6519ZM154.467 61.6519C153.981 61.6519 153.506 61.7959 153.102 62.0658C152.698 62.3358 152.383 62.7194 152.197 63.1683C152.011 63.6171 151.963 64.1111 152.057 64.5876C152.152 65.0641 152.386 65.5018 152.73 65.8453C153.073 66.1889 153.511 66.4228 153.987 66.5176C154.464 66.6124 154.958 66.5638 155.407 66.3778C155.856 66.1919 156.239 65.8771 156.509 65.4731C156.779 65.0691 156.923 64.5942 156.923 64.1083C156.923 63.4568 156.664 62.832 156.204 62.3713C155.743 61.9107 155.118 61.6519 154.467 61.6519ZM139.903 76.1185C135.366 76.1185 131.205 77.5704 128.819 80.0074C128.728 80.0989 128.655 80.2075 128.606 80.3271C128.556 80.4466 128.531 80.5748 128.531 80.7042C128.531 80.8336 128.556 80.9617 128.606 81.0813C128.655 81.2008 128.728 81.3094 128.819 81.4009C129.004 81.5786 129.25 81.6784 129.507 81.6796C129.637 81.6799 129.767 81.6537 129.887 81.6024C130.007 81.5512 130.116 81.476 130.207 81.3815C132.203 79.3463 135.917 78.0824 139.89 78.0824C143.863 78.0824 147.57 79.3463 149.567 81.3815C149.749 81.5671 149.997 81.6728 150.258 81.6752C150.518 81.6777 150.768 81.5767 150.954 81.3945C151.139 81.2122 151.245 80.9637 151.248 80.7036C151.25 80.4435 151.149 80.1931 150.967 80.0074C148.595 77.5704 144.453 76.1185 139.903 76.1185Z" fill="white"/>
<path d="M228.032 185.377L79.6773 186.025C78.7074 186.029 77.7608 185.728 76.972 185.164C76.1831 184.599 75.5921 183.801 75.2829 182.881L51.3792 111.585L45.8246 95.012C45.5914 94.3211 45.5258 93.5848 45.6331 92.8636C45.7404 92.1424 46.0174 91.4571 46.4415 90.864C46.8656 90.2709 47.4246 89.7871 48.0723 89.4524C48.72 89.1177 49.438 88.9416 50.1672 88.9388H53.7449L198.535 88.349C199.504 88.3459 200.449 88.6488 201.236 89.2144C202.022 89.78 202.611 90.5795 202.916 91.499L230.741 174.475L231.454 176.594L232.368 179.323C232.596 180.012 232.657 180.745 232.548 181.463C232.439 182.18 232.161 182.862 231.739 183.452C231.316 184.042 230.76 184.524 230.116 184.858C229.472 185.193 228.758 185.371 228.032 185.377Z" fill="url(#paint8_linear)"/>
<path d="M210.278 105.439C217.123 96.5728 215.484 83.8368 206.619 76.9919C197.753 70.1471 185.017 71.7854 178.172 80.6512C171.327 89.5169 172.965 102.253 181.831 109.098C190.697 115.943 203.433 114.304 210.278 105.439Z" fill="white"/>
<path d="M202.384 85.5879L186.764 101.215" stroke="#D9EAFE" stroke-width="3.55" stroke-miterlimit="10" stroke-linecap="round"/>
<path d="M202.384 101.215L186.764 85.5879" stroke="#D9EAFE" stroke-width="3.55" stroke-miterlimit="10" stroke-linecap="round"/>
<path d="M30.9428 93.1064C27.8706 93.2296 25.4918 96.1073 25.7576 99.3416C26.0835 102.804 26.8884 106.205 28.1493 109.446C32.0381 119.817 33.8076 132.87 38.0724 133.791C42.3372 134.711 45.5131 127.575 43.6465 116.939C41.9613 107.307 41.2418 95.012 38.2409 93.7286C36.7243 93.0546 33.6261 93.0027 30.9428 93.1064Z" fill="#DD8678"/>
<path d="M40.8329 131.243C32.245 125.909 35.5311 166.73 38.4542 177.612C41.3774 188.494 43.2116 179.239 43.6394 161.506C44.0672 143.772 44.2357 133.343 40.8329 131.243Z" fill="#DD8678"/>
<path d="M37.2812 173.963L37.7414 180.93L43.16 180.969L43.51 174.436L37.2812 173.963Z" fill="#DD8678"/>
<path d="M43.4261 179.667C43.4261 179.667 44.6187 181.864 48.5594 184.677C52.5002 187.49 53.4854 186.835 53.6085 187.918C53.7317 189 37.6122 188.566 37.6122 188.566L37.5928 179.543C37.5928 179.543 43.4261 179.433 43.4261 179.667Z" fill="url(#paint9_linear)"/>
<path d="M19.5161 92.5944C18.7272 92.4878 17.9247 92.545 17.1589 92.7626C16.3931 92.9801 15.6804 93.3533 15.0654 93.8589C14.4504 94.3644 13.9463 94.9913 13.5846 95.7005C13.2229 96.4097 13.0114 97.1859 12.9633 97.9805C12.7829 101.617 13.1301 105.261 13.9939 108.798C16.5865 120.141 16.4957 133.875 20.9679 135.638C25.4402 137.401 29.9707 130.699 29.5948 119.434C29.2577 109.245 30.3726 96.5092 27.3327 94.6231C25.7772 93.6509 22.4392 93.0027 19.5161 92.5944Z" fill="#DD8678"/>
<path d="M24.7004 130.09C16.1643 124.075 17.2013 164.688 19.5671 176.108C21.9328 187.529 24.2661 179.744 25.7698 161.486C27.2735 143.228 28.0578 132.456 24.7004 130.09Z" fill="#DD8678"/>
<path d="M18.4395 174.89L18.582 179.343L24.4607 179.706L24.4867 175.143L18.4395 174.89Z" fill="#DD8678"/>
<path d="M24.6298 179.427C24.6298 179.427 25.5437 181.695 29.4391 184.657C33.3344 187.619 34.3456 186.978 34.4363 188.08C34.527 189.181 18.2715 188.229 18.2715 188.229L18.5178 179.155C18.5178 179.155 24.6298 179.187 24.6298 179.427Z" fill="url(#paint10_linear)"/>
<path d="M26.224 97.3388C26.224 97.3388 23.2749 104.041 33.1851 135.677C33.1851 135.677 32.6601 146.857 34.8768 175.817H44.787C44.787 175.817 45.9407 141.782 46.4073 134.834C46.8805 127.769 41.099 95.9453 41.099 95.9453L26.224 97.3388Z" fill="url(#paint11_linear)"/>
<path d="M13.1507 97.3389C13.1507 97.3389 8.71733 107.904 16.521 135.152C16.521 135.152 15.8729 155.718 16.7349 175.817H26.6516C26.6516 175.817 29.8923 142.113 30.3396 135.152C30.8127 128.087 32.7701 96.1981 32.7701 96.1981L13.1507 97.3389Z" fill="url(#paint12_linear)"/>
<path d="M32.6081 59.1694C33.046 59.5497 33.5813 59.8003 34.1538 59.893C34.7263 59.9858 35.3133 59.917 35.8489 59.6944C40.7294 57.8148 60.4331 50.7046 59.26 47.0361C57.8729 42.7194 40.5415 50.3805 36.7239 52.8241C33.5285 54.8592 30.5405 57.2379 32.6081 59.1694Z" fill="#DD8678"/>
<path d="M59.5712 44.4046C59.4505 43.8589 59.1907 43.3537 58.817 42.938C58.4434 42.5223 57.9686 42.2104 57.4388 42.0324C52.4999 40.1917 34.8378 33.7102 33.2563 35.3695C31.4156 37.2815 56.5897 47.8204 57.7499 47.0361C58.6184 46.4269 59.8563 45.9213 59.5712 44.4046Z" fill="#DD8678"/>
<path d="M44.4888 47.9694C44.4888 47.9694 51.2943 46.1675 51.2943 45.9148C51.2943 45.1046 38.5518 39.7249 38.5518 39.7249L40.5351 35.8361C40.5351 35.8361 53.4527 40.2305 56.0064 41.2287C58.5601 42.2268 61.2629 43.2833 61.1916 47.3861C61.1203 51.4888 47.6906 57.0435 47.6906 57.0435L44.4888 47.9694Z" fill="#DD8678"/>
<path d="M38.267 34.7666L40.5355 35.8296L38.5522 39.7185L36.3096 38.3379" fill="#DD8678"/>
<path d="M49.3437 57.5037C48.3261 57.9574 47.302 58.3981 46.3039 58.8C44.7613 59.4481 43.29 60.0379 42.0391 60.537C39.777 61.4315 38.2279 62.0342 38.2279 62.1509L35.9465 57.6139L32.4854 50.7435L33.8789 50.3287L39.1872 48.7861L43.5687 47.5416C44.1455 47.3861 44.6122 47.2629 44.9103 47.1917L49.3437 57.5037Z" fill="url(#paint13_linear)"/>
<g style="mix-blend-mode:multiply" opacity="0.5">
<path style="mix-blend-mode:multiply" opacity="0.5" d="M42.0391 60.55C39.7771 61.4444 38.228 62.0472 38.228 62.1639L35.9465 57.6268C35.4521 55.1473 34.7608 52.7112 33.8789 50.3417L39.1872 48.7991C39.7317 50.2704 40.1919 51.7611 40.5808 53.2259C41.2229 55.6336 41.7101 58.08 42.0391 60.55Z" fill="url(#paint14_linear)"/>
</g>
<g style="mix-blend-mode:multiply" opacity="0.5">
<path style="mix-blend-mode:multiply" opacity="0.5" d="M49.3434 57.5037C48.3258 57.9574 47.3017 58.3981 46.3035 58.8C45.8207 54.96 44.9031 51.1873 43.5684 47.5546C44.1452 47.399 44.6119 47.2759 44.91 47.2046L49.3434 57.5037Z" fill="url(#paint15_linear)"/>
</g>
<path d="M36.5814 37.962L36.3092 38.3444L34.4425 38.5129C33.967 38.5538 33.4887 38.4782 33.049 38.2926L31.3574 36.9963C31.3574 36.9963 31.2601 36.3481 32.375 36.8083C32.7679 36.8963 33.1773 36.8784 33.5611 36.7564L32.524 36.1601L30.1064 34.5138C29.7591 34.2839 29.5076 33.9352 29.399 33.5331C29.2904 33.131 29.3322 32.7031 29.5166 32.3296C29.7683 32.0222 30.1001 31.7905 30.4753 31.66C30.8505 31.5296 31.2545 31.5056 31.6425 31.5907L33.587 31.7981C34.5787 32.0898 35.4083 32.1287 36.1796 32.7768L38.2213 34.7212L36.5814 37.962Z" fill="#DD8678"/>
<path d="M42.4929 100.21C41.2744 102.926 11.1874 104.047 11.1939 103.399C11.2003 102.751 11.1938 102.181 11.2587 101.571C11.3624 99.7435 11.5698 97.9027 11.7966 96.0685C11.9846 94.5842 12.1726 93.1064 12.3346 91.6287C12.3346 91.4083 12.38 91.175 12.4059 90.9805C12.5874 89.1398 12.704 87.2861 12.7559 85.4388C12.8077 83.5916 12.8337 81.8287 12.8077 80.0138C12.7818 78.199 12.7105 76.2546 12.6133 74.375C12.5161 72.4953 12.4059 70.6287 12.2827 68.7555C12.2439 68.224 12.2114 67.699 12.1726 67.174L12.1272 66.5259C12.0429 65.3009 11.9522 64.199 11.8679 63.2851C11.8719 63.2117 11.8719 63.1382 11.8679 63.0648C11.8031 62.3648 11.7318 61.8203 11.6735 61.4574C11.6151 61.2175 11.5698 60.9842 11.5244 60.7444C11.3494 59.7527 11.1874 58.8583 11.0513 58.0481C10.8673 57.1162 10.7568 56.1713 10.7207 55.2222C10.7207 54.1787 11.4207 53.3425 12.4253 52.6879C14.7976 51.1453 19.0105 50.5879 20.78 50.5231C21.1729 50.5026 21.5666 50.5026 21.9596 50.5231C21.9985 50.5231 31.1633 51.074 31.1633 51.074C31.1633 50.9703 31.8114 50.8277 31.8114 50.8277C33.017 50.5555 34.404 51.4305 35.4216 52.5194C35.7884 52.903 36.1163 53.322 36.4003 53.7703C37.0682 54.9518 37.5657 56.2218 37.8781 57.5425C38.1094 58.4097 38.2848 59.2908 38.4031 60.1805C38.442 60.4722 38.4874 61.0296 38.5522 61.8203C38.6559 63.162 38.7985 65.1583 38.9605 67.55C39.0577 69.0926 39.1744 70.7907 39.2976 72.599C39.4207 74.4074 39.5568 76.4166 39.6929 78.387C39.8161 80.124 39.9457 81.8805 40.0688 83.5722C40.2309 85.5944 40.3864 87.5583 40.542 89.3666C40.5809 89.8333 40.6263 90.3 40.6651 90.7472C40.7494 91.6546 40.8726 92.5426 41.0216 93.3916C41.417 95.699 41.9744 97.7083 42.279 98.9463C42.4162 99.3537 42.4884 99.7802 42.4929 100.21Z" fill="url(#paint16_linear)"/>
<g style="mix-blend-mode:screen" opacity="0.5">
<path style="mix-blend-mode:screen" opacity="0.5" d="M37.8514 57.5232C35.4538 58.2271 32.9985 58.7173 30.5144 58.988C24.0037 59.6457 17.431 59.318 11.0181 58.0157C10.8341 57.0839 10.7236 56.139 10.6875 55.1898C10.6875 54.1463 11.3875 53.3102 12.3921 52.6555C17.3764 53.6083 26.8329 54.8009 35.3884 52.5C35.7552 52.8836 36.0831 53.3026 36.3671 53.7509C37.0373 54.9321 37.537 56.2021 37.8514 57.5232Z" fill="url(#paint17_linear)"/>
<path style="mix-blend-mode:screen" opacity="0.5" d="M38.9337 67.5306C34.9585 68.8648 30.8098 69.6116 26.6189 69.7472C21.8273 69.9139 17.0317 69.5662 12.3142 68.7102C12.2753 68.1787 12.2429 67.6537 12.204 67.1287L12.1587 66.4806C12.0744 65.2556 11.9837 64.1537 11.8994 63.2398C11.9033 63.1664 11.9033 63.0928 11.8994 63.0194C17.655 64.1537 29.205 65.612 38.5837 61.788C38.629 63.1426 38.7716 65.1389 38.9337 67.5306Z" fill="url(#paint18_linear)"/>
<path style="mix-blend-mode:screen" opacity="0.5" d="M39.666 78.3675C35.4707 79.8838 31.0641 80.7345 26.6058 80.8888C21.9873 81.0722 17.3622 80.7702 12.8067 79.9879C12.8067 78.1083 12.7095 76.2287 12.6123 74.349C18.7438 75.4703 30.1771 76.6759 39.2706 72.5796C39.3938 74.4398 39.5364 76.3972 39.666 78.3675Z" fill="url(#paint19_linear)"/>
<path style="mix-blend-mode:screen" opacity="0.5" d="M40.5154 89.3601C36.155 90.989 31.5569 91.8912 26.9043 92.0305C22.0401 92.197 17.1722 91.8363 12.3857 90.9546C12.5672 89.1138 12.6839 87.2601 12.7357 85.4129C18.9126 86.5731 30.7478 87.9147 40.0228 83.5657C40.1848 85.562 40.3598 87.5518 40.5154 89.3601Z" fill="url(#paint20_linear)"/>
<path style="mix-blend-mode:screen" opacity="0.5" d="M42.2523 98.9398C37.4312 101.16 32.2207 102.411 26.9171 102.621C21.6742 102.887 16.4183 102.535 11.2578 101.571C11.3615 99.7435 11.5689 97.9027 11.7958 96.0685C17.9402 97.2092 31.2402 98.7777 40.9948 93.3851C41.3902 95.6925 41.9476 97.7018 42.2523 98.9398Z" fill="url(#paint21_linear)"/>
</g>
<path d="M21.8227 50.562C26.794 53.6667 31.9792 50.9056 31.9792 50.9056C31.4568 50.553 30.9856 50.1298 30.5792 49.6482C29.9524 48.9813 29.5846 48.1124 29.5421 47.1982C32.8542 47.088 33.8069 39.9324 33.9301 38.3509C34.0143 37.3074 34.1699 34.462 32.2579 32.8676C32.1477 32.7769 32.0245 32.6861 31.9014 32.6019C31.7718 32.7056 31.5903 32.6537 31.3764 32.5435C31.2967 32.5078 31.2208 32.4644 31.1495 32.4139C30.7866 32.4139 30.6958 32.4139 30.5014 32.2C30.4495 32.1352 30.3782 32.0509 30.294 31.9343C30.2232 31.9224 30.1509 31.9224 30.0801 31.9343L29.8532 31.9926C29.3671 32.1352 28.706 32.4269 28.2134 32.0574C28.1053 31.9729 28.0131 31.8697 27.9412 31.7528C27.6236 31.5583 26.943 31.6945 27.144 31.8306C27.0403 31.8306 26.943 31.8306 26.8393 31.8695C20.0468 32.9583 22.0625 41.1315 22.7495 44.4111C23.4366 47.6908 21.4532 50.3158 21.8227 50.562Z" fill="#DD8678"/>
<g style="mix-blend-mode:multiply" opacity="0.5">
<path d="M25.667 46.0249L30.2753 50.9962L30.58 49.648C29.9532 48.9812 29.5854 48.1123 29.5429 47.198C29.5429 47.198 26.9827 47.0555 25.667 46.0249Z" fill="#D7CFBB"/>
</g>
<path d="M34.9612 37.7805C34.9612 37.7805 27.8964 35.2528 27.0538 37.1324C26.2112 39.012 26.5742 40.762 25.9843 40.8398C25.3945 40.9176 24.6881 37.5148 23.4695 38.4611C22.251 39.4074 23.8584 42.35 22.7695 44.1259C22.3677 44.7741 19.989 38.1565 20.9677 35.1685C21.9788 32.0639 23.6381 30.9491 28.0973 30.8259C30.1131 30.7676 32.5177 31.2083 33.9306 32.1222C35.7843 33.3083 35.9334 36.575 34.9612 37.7805Z" fill="url(#paint22_linear)"/>
<path d="M30.1002 48.8055L28.2012 51.7546L30.6901 54.1981C30.6901 54.1981 32.6669 50.8213 32.4789 50.7694C32.291 50.7176 30.1002 48.8055 30.1002 48.8055Z" fill="#FFF5D9"/>
<path d="M28.201 51.748L22.3353 48.8508L20.1445 50.5295L26.9955 54.9953L28.201 51.748Z" fill="#FFF5D9"/>
<path d="M12.6903 53.6018C12.1792 54.0544 11.8037 54.6401 11.6057 55.2935C11.4077 55.9469 11.395 56.6425 11.569 57.3027C12.995 63.3175 18.1024 83.3971 22.5876 82.5805C27.8505 81.6212 22.27 64.1018 19.995 59.2471C18.1477 55.1962 15.2764 51.4759 12.6903 53.6018Z" fill="#DD8678"/>
<path d="M13.8447 69.1185C13.8447 69.1185 16.8457 80.5842 21.6225 84.3889C26.3994 88.1935 48.391 92.2055 48.391 92.2055L50.0568 87.3379C50.0568 87.3379 27.3132 78.4842 26.3151 77.3305C25.3169 76.1768 22.6855 66.1176 22.6855 66.1176L13.8447 69.1185Z" fill="#DD8678"/>
<path d="M22.4002 82.6584C22.5991 83.2344 22.9348 83.7535 23.3785 84.1712C23.8221 84.5889 24.3605 84.8927 24.9475 85.0565C30.7808 86.8389 51.8586 93.1389 53.5826 91.1102C55.5919 88.7574 25.5827 78.2769 24.2864 79.2815C23.2752 80.0658 21.8104 80.7723 22.4002 82.6584Z" fill="#DD8678"/>
<path d="M50.0368 87.3379L51.9554 88.1286L50.5489 92.7629L48.3711 92.2055L50.0368 87.3379Z" fill="#DD8678"/>
<path d="M51.651 88.5888L51.8714 88.0703L54.0168 87.3833C54.5663 87.2129 55.1488 87.1773 55.7149 87.2796L58.0353 88.336C58.0353 88.336 58.3205 89.0685 56.8881 88.8222C56.4039 88.8253 55.9286 88.9525 55.5075 89.1916L56.8816 89.6259L60.1223 90.9222C60.5957 91.0982 60.9886 91.4409 61.2273 91.886C61.4659 92.3312 61.534 92.848 61.4186 93.3398C61.2032 93.7673 60.8736 94.1269 60.4663 94.3785C60.059 94.6302 59.59 94.7642 59.1112 94.7657L56.752 95.0314C55.501 94.9536 54.5223 95.1286 53.401 94.5712L50.4844 92.8018L51.651 88.5888Z" fill="#DD8678"/>
<path d="M23.1327 66.9666C23.1327 66.999 12.9179 71.1666 12.9179 71.1666C12.1974 69.478 11.5826 67.7463 11.0771 65.9814C10.6641 64.5345 10.3459 63.0623 10.1243 61.574C9.80273 59.6996 9.82469 57.7823 10.1892 55.9157C10.578 54.3018 11.3753 53.174 12.6651 52.7786C13.4211 52.5062 14.236 52.4394 15.0264 52.5851C15.8167 52.7309 16.5541 53.084 17.1632 53.6083C18.5387 54.8876 19.5934 56.4731 20.2419 58.2361C20.8704 59.7345 21.4156 61.2664 21.8753 62.8249C22.3225 64.2768 22.7308 65.7092 23.1327 66.9666Z" fill="url(#paint23_linear)"/>
<g style="mix-blend-mode:multiply" opacity="0.5">
<path style="mix-blend-mode:multiply" opacity="0.5" d="M20.2419 58.2101C17.0248 59.7552 13.6254 60.8876 10.1243 61.5805C9.80273 59.706 9.82469 57.7887 10.1892 55.9221C12.5869 55.3944 14.9239 54.6212 17.1632 53.6147C18.5345 54.8849 19.5889 56.4588 20.2419 58.2101Z" fill="url(#paint24_linear)"/>
</g>
<g style="mix-blend-mode:multiply" opacity="0.5">
<path style="mix-blend-mode:multiply" opacity="0.5" d="M23.1327 66.9666C23.1327 66.999 12.9179 71.1666 12.9179 71.1666C12.1974 69.478 11.5827 67.7463 11.0771 65.9814C14.8093 65.4562 18.4462 64.3953 21.8753 62.8314C22.3225 64.2768 22.7309 65.7092 23.1327 66.9666Z" fill="url(#paint25_linear)"/>
</g>
<path d="M61.5744 0.00646973C65.8132 0.00646973 68.704 2.59906 68.704 6.66943C68.704 11.3879 65.4632 13.3324 60.9262 13.3324L60.829 16.4046H58.2753L58.1457 11.2972H59.0855C62.7734 11.2972 65.904 10.5842 65.904 6.66943C65.904 4.07684 64.2253 2.46943 61.6068 2.46943C58.9882 2.46943 57.3095 3.9861 57.3095 6.50739H54.5225C54.5095 2.59906 57.3549 0.00646973 61.5744 0.00646973ZM59.5392 23.0287C59.1408 23.0403 58.748 22.9328 58.411 22.7199C58.0741 22.507 57.8083 22.1984 57.6478 21.8336C57.4872 21.4688 57.4391 21.0644 57.5097 20.6722C57.5803 20.2799 57.7663 19.9176 58.0439 19.6317C58.3215 19.3457 58.6782 19.1491 59.0682 19.067C59.4582 18.9848 59.8638 19.0209 60.2332 19.1707C60.6026 19.3204 60.9189 19.5769 61.1416 19.9074C61.3644 20.2379 61.4834 20.6273 61.4836 21.0259C61.4905 21.2845 61.4457 21.5419 61.3519 21.7829C61.2581 22.024 61.1172 22.2439 60.9373 22.4299C60.7574 22.6158 60.5423 22.7639 60.3044 22.8656C60.0666 22.9673 59.8108 23.0206 59.5521 23.0222L59.5392 23.0287Z" fill="url(#paint26_linear)"/>
<path d="M183.484 19.574C185.96 18.3166 188.417 18.9259 189.635 21.3564C191.029 24.1175 189.694 26.2175 187.043 27.5527L187.898 29.3805L186.401 30.1388L184.82 27.1897L185.364 26.911C187.522 25.8221 189.143 24.474 187.989 22.186C187.843 21.8412 187.623 21.5322 187.346 21.2802C187.069 21.0283 186.74 20.8395 186.383 20.7268C186.025 20.614 185.648 20.5801 185.276 20.6272C184.905 20.6744 184.548 20.8015 184.23 20.9999C182.681 21.7842 182.162 23.1583 182.934 24.636L181.307 25.4592C180.108 23.1777 181.009 20.8249 183.484 19.574ZM189.104 33.6388C188.877 33.7599 188.62 33.8109 188.364 33.7854C188.109 33.7599 187.866 33.6591 187.668 33.4956C187.47 33.3321 187.325 33.1135 187.251 32.8674C187.177 32.6213 187.178 32.3588 187.254 32.1134C187.33 31.8679 187.477 31.6504 187.677 31.4886C187.876 31.3268 188.119 31.228 188.375 31.2046C188.631 31.1813 188.888 31.2344 189.113 31.3574C189.339 31.4804 189.523 31.6676 189.642 31.8953C189.8 32.1982 189.832 32.5512 189.732 32.8777C189.631 33.2042 189.405 33.4778 189.104 33.6388Z" fill="url(#paint27_linear)"/>
<path d="M127.529 30.1129L121.145 35.5249C120.735 35.8728 120.203 36.0436 119.667 35.9999C119.131 35.9561 118.635 35.7014 118.286 35.2916L109.472 24.9212L109.757 20.7536L115.467 15.912C115.67 15.7389 115.905 15.6076 116.158 15.5256C116.412 15.4437 116.679 15.4126 116.945 15.4343C117.21 15.456 117.469 15.53 117.706 15.652C117.943 15.774 118.153 15.9417 118.325 16.1453L127.769 27.2286C127.945 27.4327 128.078 27.6698 128.161 27.9261C128.245 28.1823 128.276 28.4526 128.254 28.721C128.231 28.9895 128.156 29.2509 128.031 29.4899C127.907 29.7289 127.736 29.9406 127.529 30.1129ZM109.835 24.7722L118.559 35.0583C118.701 35.2261 118.874 35.3643 119.07 35.465C119.265 35.5656 119.479 35.6267 119.698 35.6448C119.917 35.6629 120.138 35.6375 120.347 35.5702C120.556 35.503 120.75 35.3951 120.918 35.2527L127.302 29.8407C127.639 29.554 127.849 29.1455 127.886 28.7045C127.922 28.2635 127.782 27.826 127.497 27.4879L118.06 16.3527C117.918 16.1848 117.744 16.0466 117.548 15.946C117.353 15.8453 117.139 15.7842 116.92 15.7662C116.701 15.7481 116.481 15.7734 116.271 15.8407C116.062 15.908 115.868 16.0159 115.7 16.1583L110.1 20.9027L109.835 24.7722Z" fill="url(#paint28_linear)"/>
<path d="M109.927 20.812L111.8 23.0157L109.654 24.8305L109.927 20.812Z" fill="url(#paint29_linear)"/>
<path d="M117.653 19.0791L111.884 23.9703L112.047 24.1632L117.817 19.2719L117.653 19.0791Z" fill="url(#paint30_linear)"/>
<path d="M118.646 20.2417L112.876 25.1329L113.039 25.3257L118.809 20.4345L118.646 20.2417Z" fill="url(#paint31_linear)"/>
<path d="M119.629 21.4034L113.859 26.2947L114.023 26.4875L119.792 21.5963L119.629 21.4034Z" fill="url(#paint32_linear)"/>
<path d="M120.616 22.5702L114.847 27.4614L115.01 27.6542L120.78 22.763L120.616 22.5702Z" fill="url(#paint33_linear)"/>
<path d="M121.6 23.7319L115.83 28.6232L115.994 28.816L121.763 23.9247L121.6 23.7319Z" fill="url(#paint34_linear)"/>
<path d="M122.587 24.8922L116.817 29.7834L116.981 29.9763L122.75 25.085L122.587 24.8922Z" fill="url(#paint35_linear)"/>
<path d="M123.57 26.054L117.801 30.9452L117.964 31.138L123.734 26.2468L123.57 26.054Z" fill="url(#paint36_linear)"/>
<path d="M124.565 27.2207L118.795 32.1119L118.958 32.3048L124.728 27.4135L124.565 27.2207Z" fill="url(#paint37_linear)"/>
<path d="M249.154 60.6536L242.582 55.4685C242.16 55.1343 241.888 54.6466 241.825 54.1121C241.761 53.5777 241.913 53.0399 242.245 52.6166L250.671 41.9157L254.812 41.3647L260.691 46.0055C260.901 46.1699 261.075 46.374 261.206 46.6061C261.336 46.8383 261.419 47.0938 261.451 47.3582C261.482 47.6225 261.461 47.8905 261.388 48.1466C261.316 48.4028 261.193 48.6421 261.028 48.8509L251.993 60.3166C251.659 60.7347 251.174 61.0044 250.643 61.0675C250.111 61.1306 249.577 60.9819 249.154 60.6536ZM250.878 42.2527L242.524 52.837C242.249 53.1863 242.125 53.63 242.177 54.0709C242.229 54.5119 242.454 54.9142 242.802 55.1898L249.374 60.3749C249.724 60.6491 250.167 60.7737 250.608 60.7215C251.049 60.6692 251.452 60.4444 251.727 60.0962L260.762 48.6175C261.036 48.2693 261.161 47.8266 261.108 47.3867C261.056 46.9468 260.832 46.5456 260.484 46.2712L254.722 41.7342L250.878 42.2527Z" fill="url(#paint38_linear)"/>
<path d="M254.774 41.5527L252.985 43.8213L250.781 42.0777L254.774 41.5527Z" fill="url(#paint39_linear)"/>
<path d="M258 48.7855L252.061 44.1017L251.904 44.3002L257.843 48.984L258 48.7855Z" fill="url(#paint40_linear)"/>
<path d="M257.053 49.9837L251.113 45.2999L250.957 45.4984L256.896 50.1822L257.053 49.9837Z" fill="url(#paint41_linear)"/>
<path d="M256.109 51.1767L250.17 46.4929L250.013 46.6914L255.953 51.3752L256.109 51.1767Z" fill="url(#paint42_linear)"/>
<path d="M255.167 52.3789L249.228 47.6951L249.071 47.8936L255.01 52.5774L255.167 52.3789Z" fill="url(#paint43_linear)"/>
<path d="M254.219 53.577L248.28 48.8932L248.124 49.0917L254.063 53.7755L254.219 53.577Z" fill="url(#paint44_linear)"/>
<path d="M253.282 54.7701L247.343 50.0863L247.186 50.2848L253.125 54.9686L253.282 54.7701Z" fill="url(#paint45_linear)"/>
<path d="M252.34 55.9722L246.4 51.2885L246.244 51.4869L252.183 56.1707L252.34 55.9722Z" fill="url(#paint46_linear)"/>
<path d="M251.392 57.1704L245.453 52.4866L245.297 52.6851L251.236 57.3688L251.392 57.1704Z" fill="url(#paint47_linear)"/>
</g>
<defs>
<linearGradient id="paint0_linear" x1="257.069" y1="187.937" x2="18.7185" y2="187.937" gradientUnits="userSpaceOnUse">
<stop stop-color="#E2F4FF"/>
<stop offset="1" stop-color="#D7ECFF"/>
</linearGradient>
<linearGradient id="paint1_linear" x1="240.048" y1="88.1221" x2="229.626" y2="121.755" gradientUnits="userSpaceOnUse">
<stop offset="0.02" stop-color="#45D8C3"/>
<stop offset="1" stop-color="#34C8BE"/>
</linearGradient>
<linearGradient id="paint2_linear" x1="18101.7" y1="17610.7" x2="21391.7" y2="17610.7" gradientUnits="userSpaceOnUse">
<stop stop-color="#E2F4FF"/>
<stop offset="1" stop-color="#D7ECFF"/>
</linearGradient>
<linearGradient id="paint3_linear" x1="233.489" y1="149.573" x2="267.374" y2="149.573" gradientUnits="userSpaceOnUse">
<stop stop-color="#8AD3FF"/>
<stop offset="1" stop-color="#5F9CFF"/>
</linearGradient>
<linearGradient id="paint4_linear" x1="206.351" y1="150.318" x2="259.953" y2="150.318" gradientUnits="userSpaceOnUse">
<stop offset="0.04" stop-color="#FFD744"/>
<stop offset="1" stop-color="#F5C144"/>
</linearGradient>
<linearGradient id="paint5_linear" x1="-87177.5" y1="13488.1" x2="-91367.2" y2="12451.5" gradientUnits="userSpaceOnUse">
<stop offset="0.02" stop-color="#45D8C3"/>
<stop offset="1" stop-color="#34C8BE"/>
</linearGradient>
<linearGradient id="paint6_linear" x1="91.9077" y1="118.41" x2="232.763" y2="118.41" gradientUnits="userSpaceOnUse">
<stop offset="0.02" stop-color="#20B09E"/>
<stop offset="1" stop-color="#28BAAB"/>
</linearGradient>
<linearGradient id="paint7_linear" x1="15753.2" y1="6431.63" x2="15753.2" y2="10856.4" gradientUnits="userSpaceOnUse">
<stop offset="0.04" stop-color="#FFD744"/>
<stop offset="1" stop-color="#F5C144"/>
</linearGradient>
<linearGradient id="paint8_linear" x1="44580.1" y1="26536.1" x2="46895.6" y2="43374.2" gradientUnits="userSpaceOnUse">
<stop offset="0.02" stop-color="#45D8C3"/>
<stop offset="1" stop-color="#34C8BE"/>
</linearGradient>
<linearGradient id="paint9_linear" x1="38.2919" y1="189.438" x2="48.6812" y2="181.365" gradientUnits="userSpaceOnUse">
<stop stop-color="#294698"/>
<stop offset="1" stop-color="#0E4BA6"/>
</linearGradient>
<linearGradient id="paint10_linear" x1="-3079.74" y1="3798.2" x2="-2676.58" y2="3798.2" gradientUnits="userSpaceOnUse">
<stop stop-color="#294698"/>
<stop offset="1" stop-color="#0E4BA6"/>
</linearGradient>
<linearGradient id="paint11_linear" x1="35.6416" y1="96.0425" x2="37.4435" y2="175.985" gradientUnits="userSpaceOnUse">
<stop stop-color="#263884"/>
<stop offset="1" stop-color="#193F92"/>
</linearGradient>
<linearGradient id="paint12_linear" x1="1436.73" y1="19824.1" x2="2272.17" y2="29515.1" gradientUnits="userSpaceOnUse">
<stop stop-color="#294698"/>
<stop offset="1" stop-color="#0E4BA6"/>
</linearGradient>
<linearGradient id="paint13_linear" x1="1450.61" y1="2790.27" x2="1889.09" y2="2790.27" gradientUnits="userSpaceOnUse">
<stop offset="0.04" stop-color="#FFD744"/>
<stop offset="1" stop-color="#F5C144"/>
</linearGradient>
<linearGradient id="paint14_linear" x1="760.952" y1="2531.58" x2="928.025" y2="2505.74" gradientUnits="userSpaceOnUse">
<stop offset="0.04" stop-color="#FFD744"/>
<stop offset="1" stop-color="#F5C144"/>
</linearGradient>
<linearGradient id="paint15_linear" x1="556.561" y1="2188.99" x2="675.71" y2="2173.98" gradientUnits="userSpaceOnUse">
<stop offset="0.04" stop-color="#FFD744"/>
<stop offset="1" stop-color="#F5C144"/>
</linearGradient>
<linearGradient id="paint16_linear" x1="2478.79" y1="15131" x2="1754.81" y2="9713.16" gradientUnits="userSpaceOnUse">
<stop offset="0.04" stop-color="#FFD744"/>
<stop offset="1" stop-color="#F5C144"/>
</linearGradient>
<linearGradient id="paint17_linear" x1="1382.46" y1="1315.6" x2="2520.63" y2="1315.6" gradientUnits="userSpaceOnUse">
<stop offset="0.04" stop-color="#FFD744"/>
<stop offset="1" stop-color="#F5C144"/>
</linearGradient>
<linearGradient id="paint18_linear" x1="1424.98" y1="1665.83" x2="2555.01" y2="1665.83" gradientUnits="userSpaceOnUse">
<stop offset="0.04" stop-color="#FFD744"/>
<stop offset="1" stop-color="#F5C144"/>
</linearGradient>
<linearGradient id="paint19_linear" x1="1458.9" y1="1890.56" x2="2588.12" y2="1890.56" gradientUnits="userSpaceOnUse">
<stop offset="0.04" stop-color="#FFD744"/>
<stop offset="1" stop-color="#F5C144"/>
</linearGradient>
<linearGradient id="paint20_linear" x1="1507.19" y1="2077.74" x2="2727.18" y2="2077.74" gradientUnits="userSpaceOnUse">
<stop offset="0.04" stop-color="#FFD744"/>
<stop offset="1" stop-color="#F5C144"/>
</linearGradient>
<linearGradient id="paint21_linear" x1="1603.44" y1="2426.38" x2="3085.6" y2="2426.38" gradientUnits="userSpaceOnUse">
<stop offset="0.04" stop-color="#FFD744"/>
<stop offset="1" stop-color="#F5C144"/>
</linearGradient>
<linearGradient id="paint22_linear" x1="998.646" y1="2124.42" x2="1337.41" y2="2124.42" gradientUnits="userSpaceOnUse">
<stop stop-color="#294698"/>
<stop offset="1" stop-color="#0E4BA6"/>
</linearGradient>
<linearGradient id="paint23_linear" x1="662.082" y1="3679.19" x2="932.192" y2="3679.19" gradientUnits="userSpaceOnUse">
<stop offset="0.04" stop-color="#FFD744"/>
<stop offset="1" stop-color="#F5C144"/>
</linearGradient>
<linearGradient id="paint24_linear" x1="692.672" y1="1523.77" x2="492.996" y2="1605.81" gradientUnits="userSpaceOnUse">
<stop offset="0.04" stop-color="#FFD744"/>
<stop offset="1" stop-color="#F5C144"/>
</linearGradient>
<linearGradient id="paint25_linear" x1="862.199" y1="1721.95" x2="637.291" y2="1824.88" gradientUnits="userSpaceOnUse">
<stop offset="0.04" stop-color="#FFD744"/>
<stop offset="1" stop-color="#F5C144"/>
</linearGradient>
<linearGradient id="paint26_linear" x1="1885.22" y1="2338.46" x2="1885.22" y2="3182.26" gradientUnits="userSpaceOnUse">
<stop stop-color="#E2F4FF"/>
<stop offset="1" stop-color="#D7ECFF"/>
</linearGradient>
<linearGradient id="paint27_linear" x1="3195.2" y1="1906.54" x2="3195.2" y2="2305.84" gradientUnits="userSpaceOnUse">
<stop stop-color="#E2F4FF"/>
<stop offset="1" stop-color="#D7ECFF"/>
</linearGradient>
<linearGradient id="paint28_linear" x1="4862.43" y1="-637.374" x2="5136.17" y2="-871.495" gradientUnits="userSpaceOnUse">
<stop stop-color="#E2F4FF"/>
<stop offset="1" stop-color="#D7ECFF"/>
</linearGradient>
<linearGradient id="paint29_linear" x1="699.839" y1="48.4492" x2="706.915" y2="42.3971" gradientUnits="userSpaceOnUse">
<stop stop-color="#E2F4FF"/>
<stop offset="1" stop-color="#D7ECFF"/>
</linearGradient>
<linearGradient id="paint30_linear" x1="1395.84" y1="-1012.79" x2="1463.17" y2="-1069.87" gradientUnits="userSpaceOnUse">
<stop stop-color="#E2F4FF"/>
<stop offset="1" stop-color="#D7ECFF"/>
</linearGradient>
<linearGradient id="paint31_linear" x1="1397.73" y1="-1012.09" x2="1465.06" y2="-1069.18" gradientUnits="userSpaceOnUse">
<stop stop-color="#E2F4FF"/>
<stop offset="1" stop-color="#D7ECFF"/>
</linearGradient>
<linearGradient id="paint32_linear" x1="1399.62" y1="-1011.39" x2="1466.95" y2="-1068.47" gradientUnits="userSpaceOnUse">
<stop stop-color="#E2F4FF"/>
<stop offset="1" stop-color="#D7ECFF"/>
</linearGradient>
<linearGradient id="paint33_linear" x1="1401.51" y1="-1010.68" x2="1468.84" y2="-1067.76" gradientUnits="userSpaceOnUse">
<stop stop-color="#E2F4FF"/>
<stop offset="1" stop-color="#D7ECFF"/>
</linearGradient>
<linearGradient id="paint34_linear" x1="1403.39" y1="-1009.98" x2="1470.72" y2="-1067.06" gradientUnits="userSpaceOnUse">
<stop stop-color="#E2F4FF"/>
<stop offset="1" stop-color="#D7ECFF"/>
</linearGradient>
<linearGradient id="paint35_linear" x1="1405.28" y1="-1009.28" x2="1472.61" y2="-1066.36" gradientUnits="userSpaceOnUse">
<stop stop-color="#E2F4FF"/>
<stop offset="1" stop-color="#D7ECFF"/>
</linearGradient>
<linearGradient id="paint36_linear" x1="1407.17" y1="-1008.58" x2="1474.5" y2="-1065.66" gradientUnits="userSpaceOnUse">
<stop stop-color="#E2F4FF"/>
<stop offset="1" stop-color="#D7ECFF"/>
</linearGradient>
<linearGradient id="paint37_linear" x1="1409.06" y1="-1007.87" x2="1476.39" y2="-1064.95" gradientUnits="userSpaceOnUse">
<stop stop-color="#E2F4FF"/>
<stop offset="1" stop-color="#D7ECFF"/>
</linearGradient>
<linearGradient id="paint38_linear" x1="2655.29" y1="7998.96" x2="2951.29" y2="8232.39" gradientUnits="userSpaceOnUse">
<stop stop-color="#E2F4FF"/>
<stop offset="1" stop-color="#D7ECFF"/>
</linearGradient>
<linearGradient id="paint39_linear" x1="1096.24" y1="1238.28" x2="1109.81" y2="1248.99" gradientUnits="userSpaceOnUse">
<stop stop-color="#E2F4FF"/>
<stop offset="1" stop-color="#D7ECFF"/>
</linearGradient>
<linearGradient id="paint40_linear" x1="2347.98" y1="1719.42" x2="2417.29" y2="1774.08" gradientUnits="userSpaceOnUse">
<stop stop-color="#E2F4FF"/>
<stop offset="1" stop-color="#D7ECFF"/>
</linearGradient>
<linearGradient id="paint41_linear" x1="2346.12" y1="1720.25" x2="2415.43" y2="1774.91" gradientUnits="userSpaceOnUse">
<stop stop-color="#E2F4FF"/>
<stop offset="1" stop-color="#D7ECFF"/>
</linearGradient>
<linearGradient id="paint42_linear" x1="2344.27" y1="1721.06" x2="2413.58" y2="1775.72" gradientUnits="userSpaceOnUse">
<stop stop-color="#E2F4FF"/>
<stop offset="1" stop-color="#D7ECFF"/>
</linearGradient>
<linearGradient id="paint43_linear" x1="2342.41" y1="1721.89" x2="2411.67" y2="1776.5" gradientUnits="userSpaceOnUse">
<stop stop-color="#E2F4FF"/>
<stop offset="1" stop-color="#D7ECFF"/>
</linearGradient>
<linearGradient id="paint44_linear" x1="2340.56" y1="1722.71" x2="2409.82" y2="1777.32" gradientUnits="userSpaceOnUse">
<stop stop-color="#E2F4FF"/>
<stop offset="1" stop-color="#D7ECFF"/>
</linearGradient>
<linearGradient id="paint45_linear" x1="2338.73" y1="1723.53" x2="2407.98" y2="1778.14" gradientUnits="userSpaceOnUse">
<stop stop-color="#E2F4FF"/>
<stop offset="1" stop-color="#D7ECFF"/>
</linearGradient>
<linearGradient id="paint46_linear" x1="2336.87" y1="1724.35" x2="2406.12" y2="1778.97" gradientUnits="userSpaceOnUse">
<stop stop-color="#E2F4FF"/>
<stop offset="1" stop-color="#D7ECFF"/>
</linearGradient>
<linearGradient id="paint47_linear" x1="2335.02" y1="1725.17" x2="2404.27" y2="1779.79" gradientUnits="userSpaceOnUse">
<stop stop-color="#E2F4FF"/>
<stop offset="1" stop-color="#D7ECFF"/>
</linearGradient>
<clipPath id="clip0">
<rect width="280" height="195.747" fill="white"/>
</clipPath>
</defs>
</svg>
