<svg width="48" height="48" viewBox="0 0 48 48" fill="none" xmlns="http://www.w3.org/2000/svg">
<path d="M30.9375 14.0625C29.1282 14.0625 27.6562 12.5905 27.6562 10.7812V0H10.875C8.03184 0 5.71875 2.31309 5.71875 5.15625V42.8438C5.71875 45.6869 8.03184 48 10.875 48H37.125C39.9682 48 42.2812 45.6869 42.2812 42.8438V14.0625H30.9375ZM13.4062 33.75H20.2238C21.0004 33.75 21.63 34.3796 21.63 35.1562C21.63 35.9329 21.0004 36.5625 20.2238 36.5625H13.4062C12.6296 36.5625 12 35.9329 12 35.1562C12 34.3796 12.6296 33.75 13.4062 33.75ZM12 27.6562C12 26.8796 12.6296 26.25 13.4062 26.25H34.0312C34.8079 26.25 35.4375 26.8796 35.4375 27.6562C35.4375 28.4329 34.8079 29.0625 34.0312 29.0625H13.4062C12.6296 29.0625 12 28.4329 12 27.6562ZM34.0312 18.75C34.8079 18.75 35.4375 19.3796 35.4375 20.1562C35.4375 20.9329 34.8079 21.5625 34.0312 21.5625H13.4062C12.6296 21.5625 12 20.9329 12 20.1562C12 19.3796 12.6296 18.75 13.4062 18.75H34.0312Z" fill="#9FA5C0"/>
<path d="M30.4688 10.7813C30.4688 11.0397 30.679 11.25 30.9375 11.25H41.6544C41.3972 10.7751 41.0663 10.3388 40.6687 9.96263L31.629 1.41057C31.2782 1.07869 30.8874 0.801846 30.4688 0.583221V10.7813H30.4688Z" fill="#9FA5C0"/>
</svg>
