<svg width="15" height="8" viewBox="0 0 15 8" fill="none" xmlns="http://www.w3.org/2000/svg">
<path d="M15 1.17008C15.0005 1.31948 14.9675 1.46709 14.9035 1.60206C14.8395 1.73704 14.746 1.85596 14.63 1.95008L8.63 6.78008C8.45107 6.92716 8.22663 7.00757 7.995 7.00757C7.76338 7.00757 7.53893 6.92716 7.36 6.78008L1.36 1.78008C1.15578 1.61034 1.02736 1.36643 1.00298 1.102C0.978601 0.837578 1.06026 0.574297 1.23 0.37008C1.39974 0.165864 1.64365 0.0374398 1.90808 0.0130601C2.1725 -0.0113196 2.43578 0.0703416 2.64 0.24008L8 4.71008L13.36 0.390081C13.5068 0.267798 13.6855 0.190121 13.8751 0.166241C14.0646 0.142362 14.257 0.173278 14.4296 0.255334C14.6021 0.33739 14.7475 0.46715 14.8486 0.629261C14.9497 0.791371 15.0022 0.979047 15 1.17008Z" fill="#2E3E5C"/>
</svg>
