<svg width="54" height="54" viewBox="0 0 54 54" fill="none" xmlns="http://www.w3.org/2000/svg">
<path fill-rule="evenodd" clip-rule="evenodd" d="M15.4432 53.6667H38.5542C47.595 53.6667 53.6667 47.325 53.6667 37.8887V16.1113C53.6667 6.67497 47.595 0.333334 38.5569 0.333334H15.4432C6.4051 0.333334 0.333374 6.67497 0.333374 16.1113V37.8887C0.333374 47.325 6.4051 53.6667 15.4432 53.6667ZM17.6637 24.3333C13.9873 24.3333 11 21.3421 11 17.6667C11 13.9913 13.9873 11 17.6637 11C21.3374 11 24.3273 13.9913 24.3273 17.6667C24.3273 21.3421 21.3374 24.3333 17.6637 24.3333ZM47.8555 34.8239C48.7485 37.1135 48.2846 39.8655 47.33 42.1331C46.1984 44.8301 44.0317 46.872 41.3019 47.7637C40.0898 48.16 38.8188 48.3333 37.5504 48.3333H15.0764C12.84 48.3333 10.861 47.7967 9.23872 46.7977C8.22241 46.1703 8.04275 44.7227 8.79626 43.7843C10.0566 42.2157 11.3008 40.6416 12.5558 39.0537C14.9477 36.0155 16.5593 35.1348 18.3506 35.9082C19.0773 36.2274 19.8067 36.7062 20.5575 37.2126C22.5579 38.5721 25.3387 40.4407 29.0017 38.4125C31.5083 37.0085 32.9622 34.6004 34.2282 32.5033L34.2494 32.4682C34.3391 32.3211 34.428 32.174 34.5167 32.0272L34.5168 32.0272C34.9422 31.3232 35.362 30.6286 35.8369 29.9886C36.4322 29.1878 38.6391 26.6835 41.4976 28.4668C43.3184 29.5896 44.8495 31.1087 46.488 32.7351C47.1128 33.3571 47.5579 34.0643 47.8555 34.8239Z" fill="#9FA5C0"/>
</svg>
