<svg width="26" height="26" viewBox="0 0 26 26" fill="none" xmlns="http://www.w3.org/2000/svg">
<rect width="26" height="26" rx="5" fill="#606060" fill-opacity="0.4"/>
<path d="M18.8485 7.91742C18.1288 7.11982 17.1413 6.68054 16.0677 6.68054C15.2652 6.68054 14.5302 6.9398 13.8832 7.45104C13.5567 7.70911 13.2609 8.02483 13 8.39334C12.7393 8.02494 12.4434 7.70911 12.1168 7.45104C11.4699 6.9398 10.7349 6.68054 9.93239 6.68054C8.85875 6.68054 7.87114 7.11982 7.15145 7.91742C6.44036 8.7057 6.04865 9.7826 6.04865 10.9499C6.04865 12.1513 6.48682 13.2511 7.42755 14.411C8.26911 15.4486 9.47862 16.5019 10.8793 17.7215C11.3575 18.138 11.8997 18.6102 12.4626 19.1131C12.6113 19.2462 12.8021 19.3194 13 19.3194C13.1979 19.3194 13.3888 19.2462 13.5373 19.1133C14.1002 18.6103 14.6426 18.1379 15.1211 17.7212C16.5216 16.5018 17.7311 15.4486 18.5726 14.4109C19.5134 13.2511 19.9514 12.1513 19.9514 10.9498C19.9514 9.7826 19.5597 8.7057 18.8485 7.91742Z" fill="#FF4B4B"/>
</svg>
