<svg width="123" height="163" viewBox="0 0 123 163" fill="none" xmlns="http://www.w3.org/2000/svg">
<g clip-path="url(#clip0)">
<path d="M101.262 29.9952H72.9165C70.5589 29.9952 68.6474 31.9067 68.6474 34.2643V50.2979C68.6474 52.6555 70.5589 54.567 72.9165 54.567H82.9996L81.37 61.1449C81.1575 62.0018 82.1439 62.6468 82.8442 62.1089L92.6625 54.567H101.263C103.62 54.567 105.532 52.6561 105.532 50.2979V34.2643C105.531 31.9067 103.62 29.9952 101.262 29.9952Z" fill="#88DBFD"/>
<path d="M82.63 56.0572L81.3699 61.1449C81.1575 62.0018 82.1438 62.6468 82.8442 62.1089L92.6624 54.5671H84.5697L82.63 56.0572Z" fill="#5ABFE9"/>
<path d="M101.262 29.9952H93.1692C95.5274 29.9952 97.4383 31.9067 97.4383 34.2643V50.2979C97.4383 52.6555 95.5274 54.567 93.1692 54.567H101.262C103.62 54.567 105.531 52.6561 105.531 50.2979V34.2643C105.531 31.9067 103.62 29.9952 101.262 29.9952Z" fill="#5ABFE9"/>
<path d="M90.2536 80.5648C90.0411 76.9419 87.7412 73.9899 84.3184 72.3868C80.1287 70.4253 68.7191 67.4574 68.7191 67.4574C67.6162 67.2526 66.8164 66.2903 66.8164 65.1692V58.6472H54.4122V65.1692C54.4122 66.2903 53.6124 67.2526 52.5101 67.4574C52.5101 67.4574 41.1005 70.4253 36.9103 72.3868C33.4874 73.9899 31.1875 76.9419 30.975 80.5648L30.7179 96.1141C30.6967 97.8426 32.0926 99.2556 33.8217 99.2556H87.4069C89.136 99.2556 90.532 97.8426 90.5114 96.1141L90.2536 80.5648Z" fill="#FCC18B"/>
<path d="M90.2538 80.5648C90.0413 76.9419 87.7414 73.9899 84.3185 72.3868C80.1289 70.4253 68.7193 67.4574 68.7193 67.4574C67.6164 67.2526 66.8166 66.2903 66.8166 65.1692V58.6472H58.7239V69.0811C58.7239 70.2022 59.5237 71.1644 60.6259 71.3687C60.6259 71.3687 72.0362 74.3371 76.2258 76.2987C79.6486 77.9012 81.9486 80.8538 82.161 84.4761L82.4059 99.2556H87.4071C89.1362 99.2556 90.5321 97.8426 90.5115 96.1141L90.2538 80.5648Z" fill="#EAAB65"/>
<path d="M47.7549 42.1352H46.1264C45.5367 42.1352 44.9929 42.3347 44.5598 42.6695C43.8077 43.251 43.4775 44.2291 43.6476 45.1649L44.2873 48.686C44.7834 51.2955 47.759 50.1031 47.759 50.1031L47.7549 42.1352Z" fill="#EAAB65"/>
<path d="M73.4739 42.1352H75.1023C75.692 42.1352 76.2358 42.3347 76.6689 42.6695C77.4211 43.251 77.7512 44.2291 77.5811 45.1649L76.9414 48.686C76.4453 51.2955 73.4697 50.1031 73.4697 50.1031L73.4739 42.1352Z" fill="#FCC18B"/>
<path d="M69.6402 28.7534C67.5227 26.7954 64.546 25.087 60.6147 25.0393C56.6828 25.087 53.7061 26.7954 51.5886 28.7534C48.8878 31.2505 47.4248 34.9594 47.4248 38.7865L47.4283 52.1312C47.4283 58.4401 55.6282 64.9732 60.6147 64.9732C65.6006 64.9732 73.801 58.4401 73.801 52.1312L73.8046 38.7865C73.804 34.9594 72.3409 31.2505 69.6402 28.7534Z" fill="#FCC18B"/>
<path d="M69.6402 28.7534C67.5227 26.7954 64.546 25.087 60.6147 25.0393C59.1316 25.0575 57.7845 25.3118 56.568 25.7267C58.5766 26.4117 60.2286 27.534 61.5475 28.7534C64.2482 31.2505 65.7112 34.9594 65.7112 38.7865L65.7077 52.1312C65.7077 56.9047 61.0131 61.8064 56.568 63.9092C57.9975 64.5854 59.4011 64.9732 60.6141 64.9732C65.6006 64.9732 73.8004 58.4401 73.8004 52.1312L73.804 38.7865C73.804 34.9594 72.3409 31.2505 69.6402 28.7534Z" fill="#EAAB65"/>
<path d="M68.7739 24.3772H52.4549C48.2558 24.3772 44.8524 27.7812 44.8524 31.9797V42.4706C44.8524 42.4706 46.9458 42.4229 48.2911 43.7542C48.5712 44.0314 49.0474 43.8289 49.0474 43.4346V35.213C49.0474 33.3568 50.5522 31.8525 52.4078 31.8525H55.4616C56.2626 31.8525 57.0389 32.1291 57.6586 32.6364L57.9581 32.8813C58.7073 33.4939 59.646 33.8288 60.6141 33.8288C61.5828 33.8288 62.5209 33.4939 63.2707 32.8813L63.5702 32.6364C64.1899 32.1291 64.9662 31.8525 65.7672 31.8525H68.8204C70.6766 31.8525 72.1814 33.3568 72.1814 35.213V43.4352C72.1814 43.8289 72.6576 44.0319 72.9377 43.7547C74.2825 42.4229 76.3764 42.4706 76.3764 42.4706V31.9803C76.3764 27.7812 72.9724 24.3772 68.7739 24.3772Z" fill="#426175"/>
<path d="M68.7739 24.3772H65.9514C67.3715 26.0492 68.2625 28.5604 68.2849 31.8525H68.821C70.6766 31.8525 72.1814 33.3568 72.1814 35.213V43.4352C72.1814 43.8289 72.6576 44.0319 72.9377 43.7547C74.283 42.4229 76.3764 42.4706 76.3764 42.4706V31.9803C76.3764 27.7812 72.9724 24.3772 68.7739 24.3772Z" fill="#2C4456"/>
<path d="M84.3184 72.3868C81.8802 71.2457 76.9978 69.7632 73.3408 68.7233L72.5498 69.0234C64.8596 71.936 56.369 71.936 48.6789 69.0234L47.8879 68.7233C44.2308 69.7632 39.3485 71.2457 36.9103 72.3868C33.4874 73.9899 31.1875 76.942 30.975 80.5649L30.7179 96.1141C30.6967 97.8426 32.0926 99.2556 33.8217 99.2556H87.4069C89.136 99.2556 90.532 97.8426 90.5114 96.1141L90.2536 80.5649C90.0411 76.942 87.7412 73.9899 84.3184 72.3868Z" fill="#33BCA5"/>
<path d="M79.6385 95.3591H41.0234C39.8493 95.3591 38.8742 94.4516 38.7906 93.2798L37.2116 71.1215C37.1192 69.8256 38.1456 68.7233 39.4444 68.7233H81.2181C82.517 68.7233 83.5433 69.8256 83.4509 71.1215L81.8713 93.2798C81.7878 94.4516 80.8132 95.3591 79.6385 95.3591Z" fill="#F2F2F2"/>
<path d="M81.2181 68.7233H73.066C74.3649 68.7233 75.3912 69.8256 75.2988 71.1215L73.5715 95.3591H79.6386C80.8132 95.3591 81.7884 94.4516 81.8714 93.2798L83.451 71.1215C83.5434 69.8256 82.517 68.7233 81.2181 68.7233Z" fill="#CDD6DF"/>
<path d="M82.4081 99.2556H38.8206C37.7448 99.2556 36.8726 98.3834 36.8726 97.3076C36.8726 96.2312 37.7448 95.359 38.8206 95.359H82.4081C83.4839 95.359 84.3561 96.2312 84.3561 97.3076C84.3561 98.3834 83.4839 99.2556 82.4081 99.2556Z" fill="#CDD6DF"/>
<path d="M63.732 82.9348C63.732 84.6568 62.3361 86.0528 60.6141 86.0528C58.892 86.0528 57.4961 84.6568 57.4961 82.9348C57.4961 81.2128 58.892 79.8169 60.6141 79.8169C62.3361 79.8169 63.732 81.2128 63.732 82.9348Z" fill="white"/>
<path d="M85.4577 40.881C85.4577 40.309 84.9269 39.8623 84.5085 39.8623C84.4108 39.8623 84.3131 39.8764 84.2436 39.9323L80.699 42.2346C80.3782 42.4441 80.2664 42.779 80.2664 43.0162C80.2664 43.2534 80.3782 43.5882 80.699 43.7977L84.2436 46.1C84.3131 46.1559 84.4108 46.1701 84.5085 46.1701C84.9269 46.1701 85.4577 45.7234 85.4577 45.1513C85.4577 44.9142 85.3601 44.7046 85.2064 44.6069L82.75 43.0162L85.2064 41.4254C85.3595 41.3277 85.4577 41.1182 85.4577 40.881Z" fill="#3E5481"/>
<path d="M92.4771 36.1087C92.2258 36.1087 92.0022 36.2199 91.891 36.4577L86.9927 46.5184C86.9509 46.602 86.9227 46.6997 86.9227 46.7838C86.9227 47.1323 87.2299 47.523 87.7048 47.523C87.9697 47.523 88.2351 47.3835 88.3328 47.1746L93.2446 37.1133C93.2863 37.0297 93.3005 36.932 93.3005 36.8479C93.2999 36.4018 92.8673 36.1087 92.4771 36.1087Z" fill="#3E5481"/>
<path d="M99.524 42.2346L95.9799 39.9323C95.9099 39.8764 95.8122 39.8623 95.7145 39.8623C95.2961 39.8623 94.7658 40.309 94.7658 40.881C94.7658 41.1182 94.8635 41.3277 95.0171 41.4254L97.473 43.0162L95.0171 44.6069C94.8635 44.7046 94.7658 44.9142 94.7658 45.1513C94.7658 45.7234 95.2961 46.1701 95.7145 46.1701C95.8122 46.1701 95.9099 46.1559 95.9799 46.1L99.524 43.7977C99.8453 43.5882 99.9565 43.2534 99.9565 43.0162C99.9565 42.779 99.8453 42.4441 99.524 42.2346Z" fill="#3E5481"/>
<path d="M101.263 28.8652H76.9339C75.6769 25.5837 72.4936 23.2472 68.7747 23.2472H52.4563C47.6416 23.2472 43.7238 27.165 43.7238 31.9797V41.8956C42.7504 42.7343 42.2979 44.0461 42.5374 45.3667L43.1789 48.8967C43.4096 50.109 44.0534 50.7322 44.5525 51.0412C45.111 51.3867 45.7307 51.5009 46.2998 51.5038V52.1312C46.2998 55.3139 48.1566 58.8214 51.394 61.7552C52.0037 62.3072 52.6375 62.8163 53.2837 63.2765V65.1692C53.2837 65.7459 52.8724 66.2409 52.305 66.3462C52.2785 66.3509 52.2526 66.3568 52.2268 66.3633C52.2073 66.3686 50.2676 66.8741 47.7316 67.5933H39.4459C38.5143 67.5933 37.6156 67.9847 36.9806 68.6662C36.3456 69.3477 36.0195 70.2722 36.086 71.2015L36.1084 71.5205C32.4025 73.379 30.0708 76.7112 29.8483 80.4984C29.8477 80.5142 29.8472 80.5301 29.8466 80.546L29.5894 96.1C29.5753 97.2405 30.0096 98.3158 30.8106 99.1273C31.6127 99.9389 32.682 100.386 33.8232 100.386H87.4084C88.5489 100.386 89.6189 99.9389 90.4204 99.1273C91.222 98.3158 91.6563 97.2411 91.6422 96.0953L91.385 80.546C91.3844 80.5301 91.3838 80.5142 91.3827 80.4984C91.1543 76.6018 88.6931 73.1872 84.7983 71.3634C84.7271 71.3298 84.6524 71.2957 84.5753 71.261L84.5794 71.2015C84.6453 70.2722 84.3193 69.3483 83.6848 68.6662C83.0498 67.9847 82.1512 67.5933 81.2195 67.5933H73.4999C70.9646 66.8741 69.0243 66.3686 69.0048 66.3639C68.9789 66.3568 68.953 66.3509 68.9266 66.3462C68.3592 66.2409 67.9478 65.7459 67.9478 65.1692V63.2771C68.594 62.8163 69.2279 62.3072 69.8376 61.7552C71.895 59.8908 73.3952 57.7945 74.215 55.697H81.5568L80.2744 60.873C80.0607 61.7364 80.4033 62.6086 81.1471 63.0953C81.4967 63.3242 81.8887 63.4378 82.2789 63.4378C82.7203 63.4378 83.1593 63.293 83.5336 63.0052L93.0476 55.697H101.263C104.241 55.697 106.662 53.2752 106.662 50.2979V34.2643C106.662 31.2876 104.241 28.8652 101.263 28.8652ZM74.9342 43.8478C75.3661 43.7006 75.7752 43.64 76.0417 43.6159C76.3966 43.9307 76.5638 44.4492 76.4708 44.9624L75.8328 48.4747C75.7398 48.9649 75.5515 49.0815 75.4897 49.1197C75.3585 49.2009 75.1649 49.2427 74.933 49.2451L74.9342 43.8478ZM45.9837 31.9797C45.9837 28.4109 48.8875 25.5072 52.4563 25.5072H68.7753C72.3441 25.5072 75.2478 28.4109 75.2478 31.9797V41.4472C74.6887 41.5461 73.9925 41.7356 73.3128 42.0981V35.213C73.3128 32.7371 71.2983 30.7226 68.8224 30.7226H65.7686C64.7098 30.7226 63.6758 31.0916 62.856 31.7613L62.557 32.0062C62.0109 32.4529 61.3211 32.6989 60.6155 32.6989C59.9099 32.6989 59.2207 32.4529 58.6746 32.0068L58.375 31.7613C57.5558 31.0916 56.5212 30.7226 55.4624 30.7226H52.4092C49.9333 30.7226 47.9188 32.7365 47.9188 35.213V42.0975C47.2391 41.7356 46.5428 41.5455 45.9837 41.4472V31.9797ZM45.7419 49.1197C45.6801 49.0815 45.4917 48.9649 45.4005 48.4841L44.7608 44.963C44.6678 44.4498 44.835 43.9319 45.1887 43.6165C45.4553 43.6406 45.8649 43.7 46.2974 43.8472L46.2986 49.2451C46.0673 49.2427 45.8737 49.2009 45.7419 49.1197ZM35.7441 97.307C35.7441 97.5907 35.783 97.865 35.8548 98.1257H33.8232C33.2912 98.1257 32.7927 97.9173 32.4184 97.5389C32.0447 97.1605 31.8428 96.6591 31.8487 96.1324L32.1059 80.6078C32.273 77.8947 33.7767 75.5424 36.2855 74.004L37.665 93.3598C37.6903 93.7153 37.7716 94.0549 37.8987 94.3709C36.651 94.7641 35.7441 95.9317 35.7441 97.307ZM82.9998 93.3598L84.4017 73.6921C87.2371 75.2135 88.9468 77.7035 89.1257 80.6078L89.3829 96.1276C89.3888 96.6591 89.1863 97.1605 88.8132 97.5389C88.4389 97.9173 87.9404 98.1257 87.4084 98.1257H85.3768C85.4492 97.865 85.4875 97.5907 85.4875 97.307C85.4875 95.7457 84.3193 94.4527 82.8109 94.2556C82.9127 93.9725 82.978 93.6723 82.9998 93.3598ZM83.2276 97.307C83.2276 97.7584 82.8603 98.1257 82.4095 98.1257H38.8221C38.3713 98.1257 38.004 97.7584 38.004 97.307C38.004 96.8562 38.3713 96.489 38.8221 96.489H82.4095C82.8603 96.489 83.2276 96.8562 83.2276 97.307ZM82.0311 70.2063C82.243 70.4341 82.3477 70.7301 82.3254 71.0409L80.7458 93.1998C80.7046 93.7771 80.2191 94.2291 79.64 94.2291H41.0249C40.4464 94.2291 39.9608 93.7771 39.9191 93.1992L38.3401 71.0409C38.3177 70.7301 38.4225 70.4341 38.6343 70.2063C38.8468 69.9786 39.1346 69.8532 39.4459 69.8532H81.2195C81.5303 69.8532 81.8186 69.9786 82.0311 70.2063ZM66.6808 67.5933H54.5508C55.1688 66.9648 55.5436 66.1044 55.5436 65.1692V64.6637C57.3251 65.5859 59.0954 66.1032 60.6155 66.1032C62.1356 66.1032 63.9059 65.5859 65.6879 64.6637V65.1692C65.6879 66.1044 66.0628 66.9648 66.6808 67.5933ZM68.3198 60.0803C65.7968 62.3661 62.773 63.8433 60.6155 63.8433C58.4586 63.8433 55.4348 62.3661 52.9118 60.0803C50.1458 57.575 48.5597 54.6771 48.5597 52.1306L48.5573 45.0118C48.5721 45.0118 48.5868 45.0124 48.6015 45.0124C48.8057 45.0124 49.0117 44.9724 49.2088 44.89C49.7979 44.644 50.1787 44.0726 50.1787 43.4346V35.213C50.1787 33.983 51.1792 32.9825 52.4092 32.9825H55.463C56.0015 32.9825 56.5276 33.1703 56.9443 33.511L57.2445 33.7564C58.1932 34.5315 59.3902 34.9588 60.6155 34.9588C61.8408 34.9588 63.0384 34.5315 63.9871 33.7558L64.2867 33.511C64.7033 33.1703 65.2301 32.9825 65.7686 32.9825H68.8218C70.0518 32.9825 71.0529 33.983 71.0529 35.213V43.4346C71.0529 44.0732 71.4331 44.644 72.0228 44.89C72.2334 44.9783 72.4553 45.0177 72.6737 45.0118L72.6719 52.1312C72.6725 54.6771 71.0858 57.575 68.3198 60.0803ZM104.402 50.2979C104.402 52.0288 102.995 53.4371 101.263 53.4371H92.6639C92.4149 53.4371 92.173 53.5195 91.9759 53.6713L82.6031 60.8707L84.0974 54.8389C84.181 54.5017 84.105 54.1445 83.8908 53.8708C83.6766 53.5972 83.3482 53.4371 83.001 53.4371H74.8318C74.8983 52.9975 74.9324 52.5614 74.9324 52.1312V51.5038C75.5009 51.5009 76.1206 51.3867 76.6791 51.0412C77.1788 50.7322 77.8226 50.109 78.0545 48.8878L78.6942 45.3667C78.9343 44.0461 78.4806 42.7337 77.5077 41.8956V31.9797C77.5077 31.6919 77.4936 31.4065 77.466 31.1252H101.263C102.995 31.1252 104.402 32.5335 104.402 34.2643V50.2979Z" fill="#3E5481"/>
<path d="M60.6141 87.1828C62.9564 87.1828 64.862 85.2772 64.862 82.9349C64.862 80.5926 62.9564 78.6869 60.6141 78.6869C58.2718 78.6869 56.3661 80.5926 56.3661 82.9349C56.3661 85.2772 58.2718 87.1828 60.6141 87.1828ZM60.6141 80.9468C61.7105 80.9468 62.6021 81.839 62.6021 82.9349C62.6021 84.0313 61.7105 84.9229 60.6141 84.9229C59.5183 84.9229 58.6261 84.0313 58.6261 82.9349C58.6261 81.839 59.5183 80.9468 60.6141 80.9468Z" fill="#3E5481"/>
</g>
<circle cx="61.288" cy="61.288" r="60.288" stroke="#3E5481" stroke-width="2"/>
<path d="M38.6326 150.4H40.9085L35.7771 143.572L40.7213 138.036H38.4454L33.7728 143.258H33.1631V138.036H31.2977V150.4H33.1631V144.858H34.4791L38.6326 150.4ZM42.2612 150.4H42.8407C44.8631 150.4 45.6057 148.903 45.7505 145.836L45.8954 142.685H48.926V150.4H50.6948V141.127H44.2232L44.0602 145.232C43.9455 148.094 43.6195 148.836 42.5872 148.836H42.2552L42.2612 150.4ZM55.3708 147.871V141.127H53.602V150.4H55.564L59.6329 143.651V150.4H61.4017V141.127H59.4578L55.3708 147.871ZM68.325 150.587C70.3474 150.587 71.7781 149.591 72.1887 148.082L70.4802 147.774C70.1542 148.649 69.3694 149.096 68.3431 149.096C66.7977 149.096 65.7593 148.094 65.711 146.307H72.3034V145.667C72.3034 142.317 70.2991 141.007 68.1982 141.007C65.6144 141.007 63.912 142.975 63.912 145.824C63.912 148.704 65.5903 150.587 68.325 150.587ZM65.7171 144.955C65.7895 143.639 66.7433 142.498 68.2103 142.498C69.6109 142.498 70.5285 143.536 70.5345 144.955H65.7171ZM76.5749 141.127H74.8061V150.4H76.5749V146.548H80.5895V150.4H82.3523V141.127H80.5895V144.985H76.5749V141.127ZM84.117 142.685H87.1536V150.4H88.9164V142.685H91.9409V141.127H84.117V142.685Z" fill="#3E5481"/>
<defs>
<clipPath id="clip0">
<rect width="77.1383" height="77.1383" fill="white" transform="translate(29.5874 23.2472)"/>
</clipPath>
</defs>
</svg>
