<svg width="26" height="26" viewBox="0 0 26 26" fill="none" xmlns="http://www.w3.org/2000/svg">
<rect width="26" height="26" rx="5" fill="#606060" fill-opacity="0.4"/>
<path d="M13 19.2211C12.8007 19.2211 12.6085 19.1489 12.4588 19.0178C11.8932 18.5232 11.3479 18.0585 10.8669 17.6485L10.8644 17.6464C9.45396 16.4445 8.23599 15.4065 7.38855 14.384C6.44124 13.2409 6 12.157 6 10.973C6 9.82268 6.39445 8.7614 7.11062 7.98456C7.83534 7.19853 8.82975 6.76562 9.911 6.76562C10.7191 6.76562 11.4592 7.02112 12.1107 7.52495C12.4394 7.77927 12.7374 8.09052 13 8.45357C13.2626 8.09052 13.5605 7.77927 13.8894 7.52495C14.5408 7.02112 15.2809 6.76562 16.0891 6.76562C17.1702 6.76562 18.1647 7.19853 18.8895 7.98456C19.6056 8.7614 20 9.82268 20 10.973C20 12.157 19.5588 13.2409 18.6115 14.3839C17.7641 15.4065 16.5462 16.4444 15.136 17.6462C14.6541 18.0568 14.1079 18.5223 13.5411 19.018C13.3915 19.1489 13.1992 19.2211 13 19.2211V19.2211ZM9.911 7.58572C9.06153 7.58572 8.28117 7.92474 7.71347 8.54041C7.13733 9.16536 6.81999 10.0293 6.81999 10.973C6.81999 11.9688 7.19009 12.8594 8.01991 13.8607C8.82196 14.8285 10.0149 15.8451 11.3962 17.0223L11.3988 17.0244C11.8817 17.436 12.4291 17.9025 12.9988 18.4007C13.572 17.9016 14.1202 17.4343 14.6041 17.0221C15.9853 15.8449 17.1781 14.8285 17.9802 13.8607C18.8099 12.8594 19.18 11.9688 19.18 10.973C19.18 10.0293 18.8626 9.16536 18.2865 8.54041C17.7189 7.92474 16.9384 7.58572 16.0891 7.58572C15.4668 7.58572 14.8955 7.78354 14.391 8.17361C13.9414 8.52139 13.6283 8.96103 13.4446 9.26865C13.3502 9.42683 13.184 9.52126 13 9.52126C12.816 9.52126 12.6498 9.42683 12.5553 9.26865C12.3718 8.96103 12.0587 8.52139 11.609 8.17361C11.1045 7.78354 10.5332 7.58572 9.911 7.58572V7.58572Z" fill="white"/>
</svg>
