<svg width="40" height="40" viewBox="0 0 40 40" fill="none" xmlns="http://www.w3.org/2000/svg">
<path d="M6.45172 25.8065H5.16133C3.37977 25.8065 1.93555 24.3623 1.93555 22.5807C1.93555 21.5118 2.80211 20.6452 3.87101 20.6452H6.45164V25.8065H6.45172Z" fill="#BD4150"/>
<path d="M30.9681 0H7.09715L6.43262 1.29031V39.375H36.7746L38.0649 38.7097V7.0968L30.9681 0Z" fill="#ECEAEC"/>
<path d="M7.09695 36.7742V0C6.38437 0 5.80664 0.577656 5.80664 1.29031V38.7097C5.80664 39.4223 6.38437 40 7.09695 40H36.7744C37.487 40 38.0647 39.4223 38.0647 38.7097H9.03242C7.96344 38.7097 7.09695 37.8431 7.09695 36.7742Z" fill="#DAD8DB"/>
<path d="M38.0646 6.98601C38.0646 6.64383 37.9286 6.31562 37.6866 6.07359L31.9907 0.377891C31.7487 0.135937 31.4205 0 31.0783 0H30.9678V6.45164C30.9678 6.80789 31.2566 7.0968 31.6129 7.0968H38.0646V6.98601Z" fill="#DAD8DB"/>
<path d="M23.8713 24.5162H3.87129C3.64504 24.5162 3.42777 24.4774 3.2259 24.4059L2.60449 25.4427V33.5938C2.60449 34.6627 3.47105 35.5292 4.53996 35.5292H23.8713L25.1616 34.8387V25.8065C25.1616 25.0938 24.5839 24.5162 23.8713 24.5162Z" fill="#E15F78"/>
<path d="M3.22586 24.4059C2.47586 24.1393 1.93555 23.4222 1.93555 22.5806V34.1935C1.93555 35.2624 2.80211 36.129 3.87102 36.129H23.871C24.5836 36.129 25.1613 35.5513 25.1613 34.8387H5.16133C4.09242 34.8387 3.22586 33.9721 3.22586 32.9032V24.4059Z" fill="#DB4655"/>
<path d="M20.3477 29.6289H19.0813V28.406H20.5128C20.8695 28.406 21.158 28.1171 21.158 27.7609C21.158 27.4046 20.8694 27.1157 20.5128 27.1157H18.4362C18.0795 27.1157 17.791 27.4046 17.791 27.7609V32.8844C17.791 33.2406 18.0796 33.5295 18.4362 33.5295C18.7927 33.5295 19.0813 33.2406 19.0813 32.8844V30.9193H20.3477C20.7044 30.9193 20.9929 30.6304 20.9929 30.2742C20.9929 29.9179 20.7043 29.6289 20.3477 29.6289Z" fill="white"/>
<path d="M8.51496 27.0968H7.07785C6.90645 27.0968 6.74207 27.1652 6.62105 27.2864C6.50066 27.4074 6.43309 27.5713 6.43309 27.742H6.43262V32.9033C6.43262 33.2595 6.72121 33.5484 7.07777 33.5484C7.43434 33.5484 7.72293 33.2595 7.72293 32.9033V31.3031C8.01238 31.3016 8.33059 31.3002 8.51488 31.3002C9.68926 31.3002 10.645 30.3573 10.645 29.1987C10.6451 28.0396 9.68934 27.0968 8.51496 27.0968ZM8.51496 30.0098C8.33223 30.0098 8.01723 30.011 7.72934 30.0126C7.72809 29.7149 7.72496 28.3871 7.72496 28.3871H8.51504C8.97059 28.3871 9.35488 28.7588 9.35488 29.1986C9.35488 29.6384 8.97051 30.0098 8.51496 30.0098Z" fill="white"/>
<path d="M13.9247 27.173H12.5065C12.3351 27.173 12.1707 27.2411 12.0497 27.3623C11.9288 27.4836 11.8607 27.648 11.8613 27.8194L11.8651 30.3169C11.8651 31.0134 11.8714 32.8292 11.8714 32.8292C11.872 33.0003 11.9407 33.1644 12.0623 33.2851C12.1827 33.4048 12.3465 33.4722 12.5166 33.4722H12.5191C12.5191 33.4722 13.5707 33.4681 13.9777 33.4612C15.4929 33.4344 16.593 32.1144 16.593 30.3226C16.5929 28.4387 15.5205 27.173 13.9247 27.173ZM13.9549 32.1708C13.7703 32.1739 13.4509 32.1768 13.1598 32.1783C13.158 31.5877 13.1555 30.7428 13.1555 30.3169L13.153 28.4633H13.9248C15.2365 28.4633 15.3027 30.0119 15.3027 30.3225C15.3026 31.2308 14.8861 32.1544 13.9549 32.1708Z" fill="white"/>
<path d="M15.4639 21.8252C14.9662 21.8252 14.5164 21.5662 14.2001 21.0776C13.7301 20.3525 13.8536 19.5312 14.5385 18.8243C15.229 18.1111 16.6421 17.4401 18.3427 16.8923C18.8732 15.8924 19.4132 14.7221 19.9178 13.4283C20.2158 12.6637 20.4564 11.9744 20.6493 11.358C19.7993 9.79983 19.294 8.34921 19.4282 7.40725C19.565 6.45147 20.2788 5.91343 21.3398 5.97202C21.6548 5.98905 22.4064 6.1535 22.5879 7.31085C22.7265 8.19577 22.4934 9.62624 22.0259 11.2518C22.9105 12.744 24.1233 14.3424 25.3096 15.5691C27.1028 15.4598 28.6224 15.5905 29.3866 16.0517C29.9851 16.4127 30.2201 17.0015 30.0153 17.6262C29.6802 18.6472 28.8706 19.1149 27.8474 18.8765C26.9861 18.6755 25.9189 17.9235 24.8364 16.8796C23.0957 17.0327 21.0468 17.3871 19.2493 17.9157C18.1763 19.8414 17.0164 21.3406 16.0424 21.713C15.8458 21.7883 15.6518 21.8252 15.4639 21.8252ZM15.2825 20.3765C15.3903 20.5422 15.4495 20.5387 15.4772 20.5355C15.888 20.4937 16.5722 19.7845 17.3535 18.5858C16.8368 18.8073 16.3738 19.0473 15.9844 19.3051C15.0079 19.9518 15.2151 20.2712 15.2825 20.3765ZM26.6485 16.7944C27.1997 17.2253 27.712 17.5198 28.1404 17.6201C28.475 17.6979 28.647 17.6582 28.7893 17.2244C28.5991 16.9358 27.7895 16.7972 26.6485 16.7944ZM21.5243 12.8162C21.1041 14.0127 20.59 15.2516 20.0286 16.4128C21.2377 16.1091 22.5122 15.87 23.7295 15.7182C22.9425 14.8264 22.1821 13.8247 21.5243 12.8162ZM21.2137 7.236C20.7557 7.236 20.7318 7.40772 20.7053 7.58913C20.6379 8.06577 20.8054 8.74366 21.1362 9.52522C21.4279 8.13249 21.3687 7.39569 21.2269 7.236C21.2225 7.236 21.2182 7.236 21.2137 7.236Z" fill="#E15F78"/>
</svg>
