<svg width="83" height="83" viewBox="0 0 83 83" fill="none" xmlns="http://www.w3.org/2000/svg">
<g filter="url(#filter0_d)">
<circle cx="41.5" cy="41.5" r="27.5" fill="#1FCC79"/>
</g>
<g clip-path="url(#clip0)">
<path d="M53.2529 31.9204L51.0781 29.7454C50.0844 28.7517 48.4677 28.7517 47.474 29.7454C46.5384 30.6811 32.2483 44.9722 31.2933 45.9273C31.1916 46.029 31.1234 46.1642 31.0992 46.2964L30.0118 52.1689C29.9696 52.3966 30.0422 52.6304 30.2059 52.7942C30.3698 52.9581 30.6037 53.0305 30.8311 52.9884L36.7031 51.9008C36.8388 51.8755 36.9722 51.8067 37.0722 51.7066L53.2529 35.5247C54.2489 34.5287 54.249 32.9165 53.2529 31.9204ZM31.5807 51.4193L32.2385 47.8669L35.1328 50.7614L31.5807 51.4193ZM36.5751 50.215L32.7848 46.4245L46.6228 32.5855L50.413 36.376L36.5751 50.215ZM52.2586 34.5304L51.4073 35.3817L47.6171 31.5911L48.4683 30.7398C48.9137 30.2944 49.6383 30.2944 50.0837 30.7398L52.2586 32.9148C52.705 33.3613 52.705 34.0838 52.2586 34.5304Z" fill="white"/>
</g>
<defs>
<filter id="filter0_d" x="0" y="0" width="83" height="83" filterUnits="userSpaceOnUse" color-interpolation-filters="sRGB">
<feFlood flood-opacity="0" result="BackgroundImageFix"/>
<feColorMatrix in="SourceAlpha" type="matrix" values="0 0 0 0 0 0 0 0 0 0 0 0 0 0 0 0 0 0 127 0"/>
<feMorphology radius="4" operator="dilate" in="SourceAlpha" result="effect1_dropShadow"/>
<feOffset/>
<feGaussianBlur stdDeviation="5"/>
<feColorMatrix type="matrix" values="0 0 0 0 0 0 0 0 0 0 0 0 0 0 0 0 0 0 0.07 0"/>
<feBlend mode="normal" in2="BackgroundImageFix" result="effect1_dropShadow"/>
<feBlend mode="normal" in="SourceGraphic" in2="effect1_dropShadow" result="shape"/>
</filter>
<clipPath id="clip0">
<rect width="24" height="24" fill="white" transform="translate(30 29)"/>
</clipPath>
</defs>
</svg>
