<svg width="25" height="24" viewBox="0 0 25 24" fill="none" xmlns="http://www.w3.org/2000/svg">
<path d="M21.3732 19.29L18.0044 15.9C19.0913 14.5025 19.6811 12.7767 19.6789 11C19.6789 9.41775 19.214 7.87103 18.343 6.55544C17.472 5.23985 16.2341 4.21447 14.7857 3.60897C13.3373 3.00347 11.7435 2.84504 10.2059 3.15372C8.66828 3.4624 7.25589 4.22433 6.14734 5.34315C5.03878 6.46197 4.28384 7.88743 3.97799 9.43928C3.67214 10.9911 3.82912 12.5997 4.42906 14.0615C5.02901 15.5233 6.04498 16.7727 7.34851 17.6518C8.65203 18.5308 10.1846 19 11.7523 19C13.5126 19.0022 15.2226 18.407 16.6073 17.31L19.9662 20.71C20.0583 20.8037 20.1679 20.8781 20.2887 20.9289C20.4094 20.9797 20.5389 21.0058 20.6697 21.0058C20.8005 21.0058 20.93 20.9797 21.0508 20.9289C21.1715 20.8781 21.2811 20.8037 21.3732 20.71C21.4661 20.617 21.5398 20.5064 21.5901 20.3846C21.6404 20.2627 21.6663 20.132 21.6663 20C21.6663 19.868 21.6404 19.7373 21.5901 19.6154C21.5398 19.4936 21.4661 19.383 21.3732 19.29ZM5.80734 11C5.80734 9.81332 6.156 8.65328 6.80924 7.66658C7.46248 6.67989 8.39096 5.91085 9.47726 5.45673C10.5636 5.0026 11.7589 4.88378 12.9121 5.11529C14.0653 5.3468 15.1246 5.91825 15.956 6.75736C16.7874 7.59648 17.3536 8.66558 17.583 9.82946C17.8124 10.9933 17.6947 12.1997 17.2447 13.2961C16.7948 14.3925 16.0328 15.3295 15.0551 15.9888C14.0775 16.6481 12.9281 17 11.7523 17C10.1756 17 8.66347 16.3679 7.54858 15.2426C6.43368 14.1174 5.80734 12.5913 5.80734 11Z" fill="#3E5481"/>
</svg>
